<?xml version="1.0" encoding="UTF-8"?><svg id="Layer_5" xmlns="http://www.w3.org/2000/svg" viewBox="0 0 879.62 300"><rect y="0" width="879.62" height="300" style="stroke-width:0px;"/><path d="m816.81,287.18c.77,1.02,1.15,2.11.76,1.79,1.78,1.92,1.46,2.21,2.25,2.07,1.24,1.17,1.84,2.91.52,1.52l3.1,3.69-1.54-2.43c.94.3,2.46,3.88,3.56,4.22l-3-4.24.31.1c-.85-.85-2.08-2.79-2.47-3.5.15.05.24-.11.78.63-3.53-5.19-1.83-.79-4.96-4.95.2.26.42.6.69,1.09Z" style="fill:#ffd220; stroke-width:0px;"/><path d="m815,281.95l-1.87-1.37-1.93-3.13c-.24.12-1.93-1.96-1.1-.34.23.27.7.8,1,1.28-.7-.01-3.01-3.85-2.87-2.64,1.77,2.3,1.93,2.74,3.32,3.95,1.47,2.22,2.46,3.89,3,5.03.52.6.87.49,1.5,1.28-.13-.18-.25-.34-.41-.55l.64-.57c-.62-.59-1-1.29-1.55-2.04l3.26,2.97c-.13-1.59-2.92-4.8-3.6-6.38.6,2.13-1.24-1.17.59,2.52Z" style="fill:#ffd220; stroke-width:0px;"/><path d="m816.06,286s.04.06.06.09c-.02-.03-.05-.06-.06-.09Z" style="fill:#ffd220; stroke-width:0px;"/><path d="m592.74,179.99c-.55-.73-.87-.83-1.03-.87l6.08,8.29c0-.39-1.53-2.95-.26-1.43-.32-.86-2.08-2.9-2.55-3.04l.72.4c-1.75-1.65-2.01-3.47-.89-2.37l-.12-.16-5.23-4.3c1.34,2,1.56,1.16,3.29,3.49Z" style="fill:#ffd220; stroke-width:0px;"/><path d="m486.24,287.77c.6-1.19.61-1.38.46-1.29-.19.44-.35.87-.46,1.29Z" style="fill:#ffd220; stroke-width:0px;"/><path d="m588.22,175.5l-1.64-1.35c.6.58,1.18,1.05,1.64,1.35Z" style="fill:#ffd220; stroke-width:0px;"/><path d="m603.1,182.26s.06,0,.06-.08l-.76-.59s.01.01.01.02c.25.23.48.45.69.64Z" style="fill:#ffd220; stroke-width:0px;"/><path d="m567.5,155.01c-.03.08-.06.14-.09.23.04-.08.07-.15.09-.23Z" style="fill:#ffd220; stroke-width:0px;"/><path d="m621.98,202.98l-3.11-3.39c.55.35-.81-1.39-.01-.78-.24-.26-1.28-1.52-1.11-1.09l.56.74c-1.99-1.53-1.34-.2-4.13-3.11,1.13,2.25,2.08,2.9,3.11,3.78.3.33.54.62.78.91l3.03,2.49.87.44Z" style="fill:#ffd220; stroke-width:0px;"/><path d="m514.72,230.62l-.02-.07s0,.07.02.07Z" style="fill:#ffd220; stroke-width:0px;"/><path d="m514.6,230.27l.09.29c.03-.27.4-1.14-.09-.29Z" style="fill:#ffd220; stroke-width:0px;"/><path d="m589.03,175.84c-.14.03-.43-.09-.81-.34l1.22,1.01c-.12-.18-.27-.43-.41-.66Z" style="fill:#ffd220; stroke-width:0px;"/><path d="m592.32,177.75l2.35,3.05,1.13.93c-.98-1.11-2.07-2.45-3.49-3.98Z" style="fill:#ffd220; stroke-width:0px;"/><path d="m568.64,153.86c-.55,1.07-.59.72-.52.1.07-.61.33-1.61-.09-1.1-.44.95-.38,1.63-.54,2.15.47-1.14.58-.69.69-.21.13.46.27.91.56.21.08,1.28-.03,1.59-.32,1.7-.7-.15-.18-.69-.42-1.6-.29.73-.16.74,0,1.24-.07.08-.12.17-.17.27-.02.05-.04.1-.06.15l-.32.62c-.45.9-.89,1.79-1.3,2.64-.84,1.68-1.67,3.14-2.68,3.94-1.33,2.6-.95,2.59-1.48,4.22.46.65,2.5-3.56,3.54-4.2-.17.16-.49.48-.52.32l1.39-2.1c-1.42,1.94-.46-.65.13-1.79.45-.81,1.35-2.43,1.4-2.1l-.57,1.3c.28-.36.51-.78.73-1.22.1-.22.21-.45.31-.68.09-.22.25-.54.19-.49-.05-.13-.05-.33.13-.24.11.13.14.24.21.32-.15-.24-.16-.45-.15-.67.02-.23.06-.46.13-.93.02.45.06.86.13,1.22-.09-.51-.02-.94.09-1.21.19.18.42.8.41,1.2.04-.16.02-.33.1-.45.12.02.17.23.12.4-.05.18-.2.35-.33.49.11-.11.17-.09.2-.04.24.36.51.74.78,1.14.3.45.61.92.93,1.4,1.26,1.9,2.6,3.87,3.84,4.9l11.41,9.38c-.39-.38-.79-.8-1.16-1.26-.26-1.42-.73-1.95,1.1-.46-1.59-1.61-1.5-.62-3.5-3.32,1.04.88,1.82.71-.02-1.93-2.63-3.06-5.1-5.41-7.56-7.67-1.23-1.14-2.44-2.26-3.7-3.43-.19-.19-.24-.19-.31-.23l-.21-.1-.39-.17c-.25-.1-.47-.18-.66-.25.16-.48-.63-1.5-1.18-2.34-.09.14-.17.26-.25.35.03-.42.1-.82.2-1.22.21-.03.55.28.9.65-.24-.34-.59-.86-.94-1.38-.12.19-.24.39-.35.57.02.65.05,1.28.1,1.88Z" style="fill:#ffd220; stroke-width:0px;"/><path d="m574.69,158.27c-.08-.19-.19-.37-.29-.56.03.12.12.28.29.56Z" style="fill:#ffd220; stroke-width:0px;"/><path d="m570,153.02s.01-.04.02-.06l-.18-.18c.06.09.12.18.16.24Z" style="fill:#ffd220; stroke-width:0px;"/><path d="m588.81,173.66c.4.3.64.57,1.03.87-.21-.21-.46-.49-.7-.75-.25-.23-.4-.33-.33-.12Z" style="fill:#ffd220; stroke-width:0px;"/><path d="m589.06,175.47l-.31-.09c.11.18.18.3.28.45.12-.02.16-.12.03-.37Z" style="fill:#ffd220; stroke-width:0px;"/><path d="m553.15,171.8l-.29.72c.22-.4.29-.6.29-.72Z" style="fill:#ffd220; stroke-width:0px;"/><path d="m566.69,155.58c.25-.49.14-.66.07-.89-.07-.23-.1-.53.38-1.36l-.31.44c.37-1.1,1.25-2.58,1.98-3.82.32.44.62.85.89,1.22-.13.31.53,1.33.31,1.79.59.63,1.19,1.28,1.83,1.37.08.17.19.33.33.49.07.08.14.16.22.24l.12.13.2.24c.6.72,1.23,1.49,1.68,2.27-.23-.78,2.26,1.53-.6-1.82.24.26.16.05.4.31-.33-.62-.69-1.15-.98-1.54-.2-.26-.41-.47-.61-.65-.41-.37-.8-.63-1.2-1.17-.18-.47.06-.33.33-.12.26.2.53.46.3.06-.53-.54-1.19-1.52-1.83-2.4-.64-.88-1.23-1.65-1.45-1.54-.07.3-.09.58-.07.85-.58,1.15-.71.93-.97,1-.33,1.65-1.16,2.85-2,4.15-.1.16-.2.32-.3.47-.16.26-.31.51-.45.75-.31.53-.58,1.02-.79,1.44-.41.85-.57,1.44-.26,1.6.3-.56.7-1.3,1.14-2.11.21-.4.43-.83.63-1.26.06-.13.07-.17.09-.23l.06-.17.1-.37.75.61Z" style="fill:#ffd220; stroke-width:0px;"/><path d="m586,169.94c-.1-.14-.23-.32-.31-.44.09.13.2.29.31.44Z" style="fill:#ffd220; stroke-width:0px;"/><path d="m603.44,200.58l-1.41-.4c-4.07-5.21-5.28-7.29-8.72-11.93-.16-.43.32.09.56.35-2.48-3.22-5.92-8.24-8-10.38-.76-1.05-2.53-3.96-1.56-3.08-.44-.46-.92-1-1.33-1.6.15-.35,1.03,1.25,1.27,1.13-.32-.48-.4-.69-.56-.74.8.61.3-1.46,2.94,2.19.42,1.85-1.91-2.47-1.98-1.14.88,1.21,1.04.88,1.19.92,1.11,1.55.91,1.63.69,1.66.64.44,1.76,2.58,2.67,3.16,2.24,2.95-.63.21.81,2.15l1.51.62,2.24,3.34c3.67,4.52.69-1.54,5,3.55-.87-.44.1,2.15,1.78,4.75-1.12-1.48-3.58-3.91-4.79-5.99,1.45,3.11-2.8-3.7-2.38-1.84,1.27,1.13,2.95,3.34,4.07,5.21l-.48-.53c1.29,1.91,3.03,2.79,4.63,5.56.95,1.26.59,1.16.26,1.05.89,1,1.73,1.87,1.58,1.98Zm-2.17-2.67l-1.18-1.75c.18.49.65,1.12,1.18,1.75Z" style="fill:#ffd220; stroke-width:0px;"/><path d="m798.12,257.71c.1.19.22.4.31.57-.05-.14-.17-.35-.31-.57Z" style="fill:#ffd220; stroke-width:0px;"/><path d="m655.59,254.75l.34.52c-.13-.22-.24-.38-.34-.52Z" style="fill:#ffd220; stroke-width:0px;"/><path d="m673.49,242.34l1.45-1.07c-.6.36-1.04.71-1.45,1.07Z" style="fill:#ffd220; stroke-width:0px;"/><path d="m789.88,245.68l-.03-.05c-.07-.07-.12-.13-.2-.21l.23.26Z" style="fill:#ffd220; stroke-width:0px;"/><path d="m722.15,216.52c.27-.07.57-.17.96-.34-.09-.05-.44.09-.96.34Z" style="fill:#ffd220; stroke-width:0px;"/><path d="m673.22,242.54s.07-.03.1-.04c.05-.05.11-.1.16-.16l-.27.2Z" style="fill:#ffd220; stroke-width:0px;"/><path d="m652.04,245.71c-.18-.2-.34-.37-.53-.58.23.29.39.45.53.58Z" style="fill:#ffd220; stroke-width:0px;"/><path d="m651.12,248.52c-.18-.22-.36-.42-.52-.56l.52.56Z" style="fill:#ffd220; stroke-width:0px;"/><path d="m627.48,213.4l-1.07-1.26c.49.65.81,1.01,1.07,1.26Z" style="fill:#ffd220; stroke-width:0px;"/><path d="m648.99,244.67c-.09-.05-.17-.11-.24-.14.16.17.26.23.24.14Z" style="fill:#ffd220; stroke-width:0px;"/><path d="m801.99,267.76s-.05-.06-.06-.08l-.1.02.16.06Z" style="fill:#ffd220; stroke-width:0px;"/><path d="m805.28,270.35c.29.38.59.77.88,1.15-.3-.45-.62-.86-.88-1.15Z" style="fill:#ffd220; stroke-width:0px;"/><path d="m743.55,205.73c.44-.11,1.4-.5,1.05-.14.63-.57.37-.91-1.05.14Z" style="fill:#ffd220; stroke-width:0px;"/><path d="m793.06,264.17c.24.15.5.37.76.59-.45-.43-.84-.81-.76-.59Z" style="fill:#ffd220; stroke-width:0px;"/><path d="m793.82,264.76c.22.21.46.44.66.63-.22-.23-.45-.44-.66-.63Z" style="fill:#ffd220; stroke-width:0px;"/><path d="m737.46,217.37c-.12,0-.29.05-.5.15.12.07.29,0,.5-.15Z" style="fill:#ffd220; stroke-width:0px;"/><path d="m806.72,272.54c.31.1,4.25,5.02,1.33.61.63-.19,2.17,2.63,3.1,3.7-.46-.93.62.19.63-.19-.46-.53-1.08-1.11-1.7-2.09-.07-.6,1.09.73,1.78,1.92-.69-1.58,1.63,1.48.48-.63-3.09-4.08-5.33-6.92-8.12-9.35,1.78,2.31,3.79,4.88,4.94,6.99l-1.02-.52c-1.14-2.49-2.38-3.66-3.85-5.87l3.15,5.07c1.22,2.56.07,1.08-1.27-.68.3.45.55.87.55,1.04Z" style="fill:#ffd220; stroke-width:0px;"/><path d="m800.5,271.95l.04.09c.07.06.14.14.19.18l-.23-.27Z" style="fill:#ffd220; stroke-width:0px;"/><path d="m618.78,220.15l-.47-.29c.33.29.46.36.47.29Z" style="fill:#ffd220; stroke-width:0px;"/><path d="m800.65,267.52h0s-.03-.03,0,0Z" style="fill:#ffd220; stroke-width:0px;"/><path d="m626.26,230.46s-.05-.01-.08-.03c.04.03.05.02.08.03Z" style="fill:#ffd220; stroke-width:0px;"/><path d="m637.74,226.28s.02-.05,0-.11c-.19-.2-.13-.08,0,.11Z" style="fill:#ffd220; stroke-width:0px;"/><path d="m626.31,230.44s-.02.03-.05.02c.02,0,.05,0,.05-.02Z" style="fill:#ffd220; stroke-width:0px;"/><path d="m674.13,253.62s-.22.02-.53.09c-.08.1.05.09.53-.09Z" style="fill:#ffd220; stroke-width:0px;"/><path d="m663.13,259.04c-.08.02-.12.03-.22.06l.22-.06Z" style="fill:#ffd220; stroke-width:0px;"/><path d="m739.82,205.06c-.53.3-.91.53-1.23.75.39-.21.8-.45,1.23-.75Z" style="fill:#ffd220; stroke-width:0px;"/><path d="m626.19,230.43c-.12-.07-.28-.18-.51-.38.26.22.41.33.51.38Z" style="fill:#ffd220; stroke-width:0px;"/><path d="m688.9,241.91c-.1.08-.2.16-.3.24l.21-.09.09-.15Z" style="fill:#ffd220; stroke-width:0px;"/><path d="m694.63,239.06c-.16.16-.21.27-.29.38,1.86-1.34,5.61-3.22,5.75-3.97-.66.4-4.3,2.11-3.88,1.47-1.3.92-3.54,1.74-4.23,2.25,2.42-1.03.49.28-.94,1.33-1.47.65.03-.55-1.22.04l-3.18,1.91,2.83-1.55-.57.97c.09-.08.16-.13.26-.21,4.6-2.95.81.47,5.47-2.64Z" style="fill:#ffd220; stroke-width:0px;"/><path d="m694.34,239.44c-.28.2-.52.39-.69.56.44-.27.59-.41.69-.56Z" style="fill:#ffd220; stroke-width:0px;"/><path d="m714.11,229.08c.23-.16.48-.33.79-.56-.15.11-.49.35-.79.56Z" style="fill:#ffd220; stroke-width:0px;"/><path d="m597.35,184c-.08.17,1.53,2.94,1.84,2.64-.52-.79-1.05-1.58-1.57-2.38l-.27-.26Z" style="fill:#ffd220; stroke-width:0px;"/><path d="m762.82,212.32c-.19-.3-.39-.59-.6-.88-.06-.05-.12-.1-.17-.13.07.21.53.75.77,1.02Z" style="fill:#ffd220; stroke-width:0px;"/><path d="m696.95,236.29c-.47.35-.66.54-.75.67.31-.22.58-.44.75-.67Z" style="fill:#ffd220; stroke-width:0px;"/><path d="m762.1,213.06c.16.44.38,1.09.3,1.26.52.76,1.08,1.17,1.68,1.9-.65-.84-1.32-1.87-1.98-3.16Z" style="fill:#ffd220; stroke-width:0px;"/><path d="m764.13,216.28l-.05-.06.05.06Z" style="fill:#ffd220; stroke-width:0px;"/><path d="m596.38,182.37c-.19-.2-.38-.41-.57-.63l.35.29c-.4-.62-.79-1.23-1.19-1.84-.18-.2-.37-.41-.59-.69.1.11.2.17.27.19-.13-.2-.25-.4-.37-.6-1.39-1.14-4.21-4.45-5.15-5.31-1.13-1.22-2.41-2.8-3.13-3.84.69.96,1.68,2.17,1.6,1.64-1.21-2.08-1.3-3.45-4.24-6.41l1.44,1.95-3.98-3.83c-.81-1.77,1.99,1.91,2.71,2.32-2.88-3.14-3.94-6.72-5.77-7.82.23-.51.61-1.37-1.06-3.58.73,1.94-1.27-1.13-.78.54-.38-.29-.84-.99-1.16-1.48-.32-.49-.6-.91-.76-.82l.27.03c-.96-1.97-1.94-3.12-2.64-3.65-.72-.56-1.23-.57-1.71-.88-.49-.61-.93-1.17-1.29-1.66-1.45,2.55-2.46,3.92-3.88,6.5-.29-.15-1.47.09-2.39,1.75-.05.97-1.97,4.7-1.69,5.35,1.87-2.76.95-2.59,1.83-4.38.67-.57.82-.53.98-.57.14,0,.39-.27.93-.84-.11.13-.23.3-.37.53-.18.31-.38.66-.61,1.04-.43.78-.93,1.68-1.44,2.6-1.01,1.82-2.07,3.64-2.81,4.36l.29-.65c-1.89,2.59-3.41,2.42-5.34,7.44l-.97,2.37c.01-.13-.04-.18-.05-.26-2.13,3.56-2.12,2.26-3.98,6.48.14-.33-.02-.17.12-.5-1.58,2.1-2.35,4.7-3.22,6.48-1.01.81-.26-.48-.18-1.3-2.46,3.88-4.24,8.58-5.17,11.34l-1.72,2.42c.71-1.62,1.35-3.73.84-3.4-.73,1.46-.38,1.3-1.61,3.24-.06-.49.17-1.47.39-2.6-2.82,3.87.39,1.46-2.08,3.88-.76,1.29-.81,2.27-.57,2.59l-1.77,2.11c.25.49-1.4,3.4-2.44,5.34.04.33,1.31-1.28,1.57-2.09.23.32-.79,2.43-1.54,3.73-1.12-.01-4.8,8.58-4.91,6.46-3.1,5.99-7.76,14.24-9.64,18.3-.97,1.13-2.48,3.72-1.98,1.94-2.72,4.7-3.26,7.62-6.19,12.15-.33.32,1.21-2.11.83-2.11-1.43,3.24-3.57,5.34-6.08,10.2.45-.8.4-1.14.38-1.3.19,0-.83,2.11-1.4,3.41-.47.65.43-.97.1-.65-5.7,8.9-8.58,16.52-13.87,25.58,1.51-2.59,1.52-3.89,1.31-4.05l-1.48,2.54c-.29,1.14-1.39,3.05-2.11,4.77-.22.13-.78.85-.45-.02-3.47,4.69-3.52,8.43-7.37,14.42l3.18-8.1-1.46,1.62,1.38-3.57c-1.44,1.78-1.71,3.89-2.27,3.88.12-.48.73-1.46.52-1.62-1.25,1.78-1.02,2.11-1.76,3.57,1.29-4.22,5.53-11.51,7.59-15.55.29-.66-.1.65-.07.81.9-1.62,1.72-2.42,2.74-4.53.36-1.46-.82.8-1.43,1.77-.24-.32.07-.81.66-1.94.56,0,3.67-5.99,5.01-7.12,3.29-5.99-1.64.31,1.88-5.35l1.48-1.44c1.57-3.57,3.74-8.09,6.04-11.83l-.45.81c-.1.65.54-.15.87-.48,1.87-2.75,2.77-5.66,4.26-7.12,1.38-3.57,4.15-9.24,6.05-13.13,1.22-.64-2.28,5.19-2.78,6.97l1.97-3.4c-1.21,2.11-1.45,3.08-1.81,4.55,1.84-2.91,1.85-4.22,3.33-7.14.05.32.37,0,1.13-1.3l-.21-.61s.16-.13.42-.52l2.65-5.18c-.8.96-1.2.8-1.95,2.1.51-.32-.07.81-.83,2.11.38-1.3-.97,1.13-1.18.97,1.52-2.6,3.32-5.84,4.19-7.61l.71-.33c1.54-2.43,2.84-5.18,3.93-6.79l-.1.65c1.84-2.91,3.29-5.99,5.2-8.42,1.09-2.92,2.66-6.48,3.45-8.92.17-1.45,5.15-7.43,6.17-10.84.17-.17-.81,2.28-1.21,3.41,1.23-1.95,1.52-3.9,2.41-4.21-2.77,4.37.56,0-.45,2.11,1.2-2.1,2.39-4.36,2.79-5.5-1.96,3.39-.03-1.63-1.79,1.94,1.09-2.92,3.02-6.65,5.02-9.72.21.16.54-.17,1.32-1.29l.22-1.14c.92-1.45-1.27,3.09.58.18,1.21-3.4,5.67-9.06,5.4-11.01,1.77-2.1-2.16,4.7.39,1.46-.81,2.27-2.88,4.85-2.75,5.83,1.02-2.1.87-.48,1.62-1.77l.98-2.43-.31.48c.84-2.03,2.19-4.49,3.66-7.07.74-1.28,1.5-2.59,2.25-3.89.78-1.37,1.55-2.71,2.28-3.98,1.32-2.91,2.46-5.43,3.63-8.01,1.27-2.75,2.73-5.69,4.56-8.96.46.63.96,1.3,1.48,2.01-.76-.74.31.88,1.13,2.2.83,1.35,1.37,2.36-.19.78,1.09,1.76,2.16,3.2,3.02,4.23.85,1.02,1.5,1.63,1.58,1.52-1.97-2.85-.66-1.05-2.33-3.55,1.25,1.16,4.04,5.01,5,6.67-.5-.72-.34-.4-.52-.48,1.14,1.74,1.48,2.07,1.79,2.28.14.09.32.2.49.34.16.11.38.31.7.69,0,.77,2.49,3.6,3.37,5.2l2.07,1.74c-1.19-.92,1.36,2.12,1.29,2.68,1.35,1.35,2.7,2.31,4.3,4.69-.88-.83,1.29,2.3.97,2.59,2.57,4.2,5.74,5.88,7.99,9.99-.17-.06-.95-.65-.23.51.73.79,1.79,2.34,2.51,3.23l-.03-.02s.03.02.04.04c.35.44.6.69.69.64,1.49,1.34,2.43,1.9,5,4.81.23-.52-1.85-3.03-2.81-4.08l-1.11-.7c-.09-1.37-2.16-2.73-2.48-3.6,2.06,1.36,5.83,6.87,8.61,9.78-.89-2.37-3.93-6.71-6.73-10.4l.97,1.82-1.44-1.95.96,2.2c-1.28-1.91-2.56-3.43-3.76-5.12,1.44,1.95,1.45,3.11.73,1.94-1.21-2.47-1.92-2.09-3.11-3.78.64.96,1.52,2.17.73,1.55-1.93-3.64-2.89-4.3-4.57-7.66-.39.85-2.8-3.69-3.67-3.75l.96,1.43-2.55-2.66c-1.45-3.11,2.3,2.01-.34-2.4-2.72-3.86-3.34-3.26-5.59-6.22,1.11.7,3.19,2.84,4.94,5.27l-.88-1.6c.79.61,3.19,3.99,4.39,5.68-2.47-2.43.81,1.39,1.38,2.9.55-.04-.81-1.77,1.02.1-1.44-1.96-1.68-2.22-3.36-4.82,3.77,5.52,4.85,3.89,7.98,8.83-1.76-2.05.01,1.15.02,1.55.79.99,2.4,2.99,3.11,3.78l-.02-1.17c2.24,2.57,1.79,4.37,4.66,7.12.63.17-1.92-2.86-1.45-2.34,3.51,4.08,3.77,6.28,6.18,10.43.32.1.63-.2,1.9.94-.64-.18-.07.93-1.42-.4.8,1.39,2.16,2.73,3.11,3.78-1.77-2.82,1.27.75,1.83,1.1.96,1.43-.63-.18-1.35-.97.73,1.18,1.21,2.85,2.16,3.13-.31.29-3.18-2.45-4.78-4.45l.96,1.43c-.88-.83-.96-1.05-1.91-2.47.72,1.55.33,1.63-.14,1.49-.08-.21.15.04.08-.17-.73-1.18-1.44-1.96-1.44-1.57-1.19-.66.84,1.75,1.16,2.67.45.55.89,1.09,1.33,1.63l5.71,4.69c1.98,2.34,2.43,3.71,3.56,5.73l.77.22c1.53,2.18,2.89,4.3,1.38,3.29.08-.17-.16-.43-.48-.92-.1-.02-.22-.1-.35-.21-.06-.03-.1-.04-.15-.06,1.82,2.2,2.95,3.58,3.05,3.7-3.43-3.48-.86.33-2.04.19l3.11,3.78c-1.53-2.55.31-.29,1.03.48-.22.52,2.33,3.17,3.28,4.6l-.16-.04c.8,1.38,2.48,3.6,3.75,5.12.08-.17,2.22,1.41,3.33,2.11-1.86-2.85-.51-1.34-.42-1.74.18.3.55.81.65.84.4.31-.24-.64-.16-.82-2.31-2.78-4.56-5.74-5.98-6.52.4,1.08,1.35,1.35,1.92,2.47-1.43-1.17-2.71-3.09-4.47-5.51l-.25-1.04-1.96-2.3c.92.89.82.02,2.75,2.53.07-.55-1.92-2.48-2.96-4.12l-1.02-.48c.47.13-1.93-3.25.14-1.12l3.19,3.61-.49-1.3,2.48,3.21-.79-.61c4.15,5.04.26,2.19,4.65,7.1,1.74,1.27,3.1,3.01,5.34,6.34-1.83-2.26-.55.03-1.5-.62,1.53,2.56,2.56,3.04,3.67,4.13.16.82.25,1.42-1.27-.75-.78.16,2.16,2.74,1.7,3.38,5.2,7.07,6.11,4.25,11.41,13.08l-.47-.13c.72.87,1.37,1.69,1.98,2.48.15.2.3.39.45.58l.05.05s.05.05.08.08c.09.11.16.25.25.37.11-.06.24-.16.35-.3.1.09.17.2.38.23l2.25-.85c-.43.32-1.19.96-1.68,1.48-.06.06-.13.13-.16.18,0,.03,0,.07,0,.09,0,.06,0,.12.02.18.03.11.09.2.22.23-.48-.17-.73-.17-.98-.12-.24.04-.48.14-.62,0v-.02c-.03.06-.04.13-.04.21,0,.14.1.21.15.28-.09.05-.16.06-.22.05-.1-.3-.13-.6-.35-.74-.08.16.17.83-.12.59-.07-.37-.11-.69-.12-.98-.15-.11-.3-.14-.45-.15-.07,0-.13.02-.3-.1-.14-.08-.26-.15-.38-.22-.5-.29-.99-.67-2.15-2.45.41.19.97.52,1.57.96.3.22.6.47.9.74.15.14.29.28.44.42.14.14.31.35.3.31.02,0-.11-.19-.13-.24-.03-.06,0-.06.04-.02.02.02.06.05.1.09l.06.06s.02,0,.02,0c.03,0,.06.02.09.03.13.04.25.02.28-.16-.08.02-.16.02-.22.01-.17-.16-.41-.42-.59-.63-.38-.44-.71-.87-1.05-1.34-.68-.93-1.41-1.96-2.66-3.34.33.3.5.32,1.07,1.03l-2.96-4.51c.49,1.29-2.96-3.35-3.1-2.62,3.2,4.77,2.48,3.21,6.09,8.68-1.19-1.42-3.06-3.02-4.13-3.62-.02-.06-.06-.15-.17-.31-1.03-.49-.55.42-1.33.97,2.31,2.01,3.04,3.95,5.43,6.56.81.23-.67-2.04-1.81-3.38l2.11,2.3-.55-.35c1.86,2.65,2.08,3.04,2.91,4.28-.44-.55-.75-.47-1.15-.63.32.47.57,1.05.89,1.74.13-.67.33-.99.6-.6.09.14.18.28.24.38.95-.46,1.74-.75,2.48-.96.37-.11.7-.17,1.07-.25.54-.18,1.03-.31,1.48-.42.16-.11.35-.23.49-.33-.99-.02,2.66-2.59,3.76-3.83.2.5,2.42-1.03,3.82-1.53.37-.91-.95-1.12-2.73-.66-2.69,2.19-1.38,1.44-2.39,2.93l-4.5,3.2.82-1.03c-.31.15-.61.31-.9.47-.14.08-.29.17-.43.25l-.18.12c-.24.16-.45.33-.64.47-.38.28-.63.43-.62.06.57-.81.92-.72,2.47-2.1l-.84.35-.42.18-.21.09c-.06.02-.06.01-.1.02,0-.04.19-.19.31-.29.13-.1.25-.19.36-.27.22-.16.41-.27.57-.35.33-.16.56-.21.82-.26.51-.1,1.11-.22,2.68-1.37-1.5.25.29-.21,1.54-1.35-1.34.34-5.83,3.55-5.28,2.18,1.55-1.35,6.41-2.47,8.26-4.59l-.06.15c3.47-1.87,4.4-3.01,5.52-4.03,1.6-.58,3.39-2.1,4.95-3.03l.09.25,2.16-1.38c-.81,1.03-2.6,1.49-4.47,2.65l.48.29c-2.49.76-3.51,2.38-5,3.73,2.27-1.8,7.06-3.94,7.16-5.11l1.78-.46.64-.58c1.33-.34.45.84-1.71,2.22-.45.11-.67.17-.6.02-.92.78-1.67,1.66-4.21,3l1.2-.99c-3.11,1.76-5.83,3.55-6.65,4.58,4.57-2.41,8.99-4.91,13.18-7.35.68-1.68,1.84-3.06,1.96-4.32,2.72-1.79,6.47-4.12,9.11-5.21l-.12.3c1.25-.6,2.32-1.28,3.18-1.91,1.4-.49-.59.97.36.59l3.86-2.63c-.02.55-3.41,2.51-5,3.47.28-.21.86-.63.63-.57-1.97.92-5.07,3.62-6.22,3.51-.86.63,1.61-1.5-1.5.25-2.2.98-2.57,1.89-2.68,2.19.1.25,3.43-1.56,2.45-.63,1.6-.96,2.07-1.63,4.26-2.6-1.58.95-3.48,2.67-4.54,2.81-2.91,2.25-1.84,3.06-.32,2.26-.55-.13,5.52-3.74,1.13-1.79,1.61-1.51,5.01-3.48,7.29-5.15l-.06.15,2.96-1.85c-.36.37-1.21,1-1.11,1.24l3.83-3.03c-2.12,1.77,1.63-.56,2.8-1,.25-.61,1.73-1.81.05-1.1-1.91.77-.92.78-2.51,1.74l1.95-1.86.23-.06,1.11-1.24c3.11-1.76-.74,1.83,2.96-.9l-.87-.32c4.64-2.56,10.93-5.27,14.01-7.43-.69.87-.76,1.66.66,1.28-1.46.7-4.26,2.35-6.23,3.56-.45.11,2.08-2.18,4.34-3.3-1.64-.4-5.13,3.77-5.97,2.9-5.76,2.85-3.57,3.38-8.63,5.5.2.49-1.21,1-1.23,1.54,1.82-.06,6.28-3.66,9.49-5.17-.28.21-.84.62-.91.78,2.26-1.13,3.11-1.75,4.54-2.8l-.22.06c2.41-1.99,1.85-.61,3.53-1.32.57-.42,2.83-1.55,2.28-1.68l3.09-1.21-.43-.43c1.59-.96,2.13-.82,3.41-1.97l-.2-.49-4.07,2.14c1.93-1.32.31-.76,2.47-2.14-2.19,1.93,1.9-.76,2.39-.48l1.48-1.2-.35.36c1.42-.51,1.43-1.05,2.95-1.85-1.91.76-3.25,1.11-5.31,2.73,1.49-1.2,4.57-3.36,5.35-3.83,1.61-1.18,3.01-1.53,4.64-2.4-2.98,1.96,1.88.76-4.49,4,.06-.15.58-.42.8-.48-1.16-.11-3.68,2.18-4.89,3.17.54.14-.81,1.03,1.67-.16-.9.24,1.57-1.9,3.99-2.93l.02.95,3.34-1.82-.29.21c1.5-.25,3.46-2.12,5.88-3.15.37-.3,1.05-.74,1.81-1.22.96-.59,2.01-1.24,2.9-1.79,2-1.25,3.35-2.22,1.25-1.51,2.21-.86,4.05-2.17,6.29-3.7.62.75,1.28,1.55,1.96,2.48l-1.83-3.05-1.37.67c.66-.46,1.22-.86,1.46-1.05,1.21,1.46,1.71,2.11,2.24,2.7.54.61,1.09,1.13,2.64,2.64.16.63.67,1.69-.07,1.05.99,1.46,2.09,3.08,3.21,4.74.8,1.19,1.63,2.41,2.44,3.57,1.62,2.31,3.16,4.34,4.29,5.37,2,2.96,1.52,3.98,4.69,7.89.7.8.17-1.12,1.86,1.75.08.22-2.32-2.28-.17.72,2.02,1.8,3.23,5.29,5.63,7.79.84,1.62,2.7,4.15,1.91,3.9-1.53-2.42-3.93-5.7-4.48-6.07.48.15-.92-1.84.48-.24-2.15-3.78-1.86-2.13-3.85-5.48-.32-.11.68,1.96,1.3,2.54-.56.41-4.63-6.11-3.35-2.8,2.31,3.45,4.2,3.65,5.64,7.02-1.17-.95-2.16-3.01-3.79-4.1l1.45,2.59,1.63,1.48-.16-.05c2.45,4.66,3.33,3.57,6.27,7.22-1.15-2.5,1.34-.16.42-2.01,1.85,2.52,3.08,4.46,2.52,4.87-3.79-4.49-.79.14-4.43-3.91.3.87-1.56-.48.21,2.21,2.47,2.71-.14-1.22,2.1,1.63.07.21.15.43,0,.38,1.24,1.17,1,1.67,2.47,3.1l-.39-.31c1.07,2.28,1.93,1.97,2.78,3.98-.07-.99,1.16.94,2.18,1.85-1.07-1.89-1.14-3.28-3.6-6.77-.63-.19-.63.19-1.79-1.14l1.62,2.26c-.4-.46-.74-.77-1.12-1.18l-1.35-2.32c2.16,2.62,1.64,1.1,2.8,2.04,1.62,2.65,1.54,2.04,2.54,3.72-.6.18,2.56,5.49,4.28,8.64-.31-.46-.71-1.05-.92-1.37-1.78-1.92.61,1.75.53,1.92l1.32,1.38c-.24-.27-.63-.59-.24.12,1.54,2.04,1.94,1.58,3.49,3.62-.16.34-1.8-1.15-1.03.25.08.61.44,2.48,2.61,5.1.24.13.8.81,1.42,1.62-.09-.11-.21-.25-.26-.28l.99,2.06c-1.55-1.26-1.99-3.34-3.55-4.61l-.53.17c-.85-1.23-2.2-2.78-2.96-3.39,1.23,1.93,1.62,2.25,3.16,4.29-.07.49-1.3-.86-1.48-1.05l.47.14c-1.37-2.76-3.01-3.46-5.09-6.65-.31-.48-.08-.22.08-.17-2.17-2.24-3.31-5.12-5.56-7.19l.78.64c-1.34-1.55-4.03-4.52-6.71-7.51l-.19.09c.15.43-.69-.8-1.08-1.5h0c-1.33-1.5-2.61-2.95-3.66-4.13.18.48.46,1.07.85,1.7.55.37,2.47,3.49,2.64,2.77.69,1.58,2.63,3.54,3.16,4.68-.99-2.06,1.32,1,1.8,1.15.15.82,1.92,2.74,1.37,2.76.15.44-.38-1.09-1.15-1.72-1.7-1.7,2.15,3.78.13,1.59,2.4,2.9,5.09,7.04,7.64,9.98l-1.07-1.89c.92,1.45,3.32,4.74,3.31,5.12-.77-1.02-1.62-2.25-2.62-3.54-.48.23,2.23,3.23,2.07,3.56l3.42,3.41-1.16-1.73c1.01.89,3.16,4.69,4.93,7.38-1.64-1.11-2.78-3.99-4.94-6.61-1.62-1.87.29,1.65-1.18-.17.21.59,1.09,1.83,1.66,2.35l.41.83c-1.72-1.34-4.25-5.25-6.48-7.48.21.18.41.34.52.36-1.15-2.11-2.54-4.1-4-5.91.53,1.13.92,1.45,1.39,1.99-.08.16-1.39-1.6-2.01-2.19,1.07,1.89-.09.55.6,1.74-.93-1.07-1.54-2.04-2.46-3.49-.3-.87.7.41.86.08-1.17-1.35-.99-2.45-2.77-4.37,1.85,2.91-1.1-.34-1.95-1.2l.31.49c-.93-.68-1.47-1.44-1.62-2.26.93,1.07,1.62,2.26,1.71,1.71-.54-.76-1.08-1.51-1.78-2.31l.78.63-2.7-3.76c-.7-.41-1.79-1.14-2.57-1.38-.38-1.09-1.47-2.22-2.16-3.02l.4.32c-.92-1.85-3.71-5.45-4.17-5.59-.61-1.35,7.45,7.39,1.35-.93-2.23-3.22-2.18-1.46-3.73-3.11,0,0,.15.05.08-.17-.92-1.45-1.32-1.38-2.25-2.46.46.93,1.31,2.16,1.69,2.48-.63-.2-2-2.96-3.01-3.86,1.48,1.05-1.69-2.86-.67-1.96-1.61-3.03-4.09-5.76-5.49-6.97-.67-2.35-2.39-3.28-4.23-6.58.31.49,1,1.28,1.39,2,1.63,1.48-2-3.35.25-.9-.46-.54-.24.11.23.66.76,1.01,1.62,1.87,1.63,1.48l-1.38-2.77.71.81-2.1-4.1c-.06,0-.08.07-.08.16,0,.08.07.28.1.38-.22-.36-.45-.73-.67-1.1-.22-.33-.44-.67-.66-1-.45-.67-.92-1.33-1.38-1.96-.78.47-1.54.94-2.28,1.39-.36.22-.72.43-1.06.63-.45.25-.88.5-1.3.74-.07,1.65-9.77,6.34-12.64,8.99.69-.86.82-1.75.12-1.69.71-.48,1.93-1.84,3.66-2.7.38.04,2.57-.93,1.37.06,4.54-2.81-.93-.17.17-1.41-5.05,3.07-7.64,5.52-10.71,7.67l-.16-.1-2.28,1.68c2.04-1.07,2.34-.33-.37.92l.29-.21c-1.63.56-4.48,2.66-6.8,3.94l-1.32,1.29c-2.32,1.28-2.84.6-3.84.59-3.62,2.02-5.35,3.83-7.69,5.66-1.34.34-6.77,3.38-4.14,1.34-3.08,2.16-1.43,3.5-7.54,5.76l1.26-1.14c-5.28,3.14-12.5,8.13-15.14,9.22,1.32-2.25-7.29,2.7-8.87,2.15.41.1-1.54,1.33-1.75,1.64-.51.12-1.31.42-1.95,1.09,2.2-.98-.8,1.98,2.91-.75-1.57,1.91-3.82,3.99-8.23,6.49l-.2-.49,3.56-1.87c-.55-.13,1.26-1.14,1.9-1.72-6.61,3.48.23-1.56-6.35,2.32-.47.66-.12.3-1.77,1.41.8-.48.77-.88-.55-.13l-1.57,1.39c-1.76.51-.44-.42.83-1.28.72-.48,1.09-.75,1.34-.98.23-.21.19-.31-.38-.15,2.35-1.83,6.65-4.58,5.49-4.69-2.14,1.1-2.92,1.91-3.73,2.73-.4.41-.81.82-1.41,1.27-.3.23-.64.46-1.04.71-.48.29-1.09.63-1.77.98l-.65.05c-1.79,1.26-2.08,1.96-3.18,2.92-.09-.13-.59.01-1.83.68-.23.18-.45.37-.64.52-1.11-1.04-2.11-2.09-3.13-3.15-1.03-1.07-2.08-2.15-3.47-3.46,1.81,2.22,2.97,3.75,3.89,5.05.92,1.29,1.58,2.34,2.31,3.46,1.83-.91,4.05-2.07,8.46-4.88-1.3.99-7.35,4.66-8.73,6.16-.12-.09-.18-.09-.21-.05l.22-.6c-1.15-1.35-2.35-2.75-3.62-4.35-.63-.8-1.28-1.64-1.95-2.54-.64-.86-1.46-2.01-1.76-2.5l.34.34c.11.11.21.2.4.42l.98,1.09c-.25-.31-.49-.61-.73-.91-.19-.25-.38-.5-.56-.74-.28-.38-.54-.75-.78-1.12-.48-.74-.9-1.45-1.32-2.14-.83-1.37-1.65-2.61-2.96-3.66.64.95,1.2,1.69,1.68,2.21-1.44-1.56-2.96-3.73-4.24-5.64l-3.5-3.32c.24-.12-1.53-2.56-.33-1.63-1.69-3-3.28-3.83-4.55-5.35-1.61-3.15,1.99,2.3,2.78,2.15-2.65-4.04-5.84-8.03-7.83-9.95.49.86.7,1.3.57,1.33.05-.22-1.13-1.76-1.77-2.64l-.72-.4c-.88-1.59-.56-1.51.55-.42-.96-1.43-2.71-2.7-3.36-4.43,2.07,2.13,3.99,5.37,5.11,6.46-3.9-4.77-2.81-5.61-7.76-11.65.08-.17,1.11.7.23-.51-2.16-2.74-1.11-.32-2.06-.97,1.75,2.04,2.32,3.17,2.89,4.68l-.65-.41c.05-.17-.93-1.54-1.11-2.02l-.71-.02c.62-.21-.58-2.66-2.02-4.23.89,1.99.57,1.51.34,2.41-2.3-2-1.44-3.1-3.99-5.37.31.08,2.15,2.34.79.22-1.21-1.7-1.44-1.18-2.39-2.22,1.35.96,1.43.41,2.93,1.42,2.24,2.95.88,1.21,3.19,3.99l-1.45-2.73c1.92,2.48,1.83,1.49,2.14,1.58-2.73-4.64-3.02-2.79-4.94-5.65-1.27-1.13,1.84,2.65,0,.77-1.84-2.65-.71-.39-3.03-3.18l.55.35c-.4-1.08-1.36-1.73-2.15-2.73-.96-1.04-.53,2.36-3.97-2.29.29.14.42.17.47.14l6.87,1.96c-3.47-4.72-7.35-10.25-11.12-15.9-.25-1.8,3.43,3.49,3.5,2.93l1.68,2.6c-.4.07-3.92-5.17-2.79-2.53,3.44,4.26,4.56,6.51,8.23,10.25-.26-1.81-4.15-5.42-5.61-8.54.79,1.18,1.57,2.09,2.36,2.95-1.78-2.62-3.68-5.43-5.7-8.41l-.65-.53c1.36,2.02,2.29,3.42,2.39,3.61-1.84-2.64-3.83-4.55-4.46-4.36l.32.48-.84-.82c-.41-.63-.83-1.27-1.24-1.9Zm-107.55,99.26c.05-.2.06-.37.04-.51.02.15.14.06-.04.51Zm146.47-49.61c-2.44-3.53-4.91-7.1-7.25-10.49,3.39,6.75,5.72,11.53-1.59,1.48l-.55-.6c.84,1.4,2.47,3.67,4.1,5.75.81.73,2.55,2.25,4.11,3.56,1.55,1.31,2.91,2.43,2.95,2.35-.16-.81-1.12-1.48-1.85-2.65l.09.61Zm.12,3.69c1.32,2.05,1.22,1.44,1.64,1.6-.53-.67-1.06-1.34-1.59-2.01.14.3.16.48-.06.41Zm1.76,1.33c-.16-.22-.29-.42-.33-.54l.33.54Zm-27.68-38.4c.07.08.09.11.16.19-.32-.48-.65-.95-.99-1.45.11.21.34.59.83,1.26Zm2.42,4.35l.71.2c-.3-.44-.61-.89-.93-1.36-.06.27-.09.53.22,1.16Zm8.17,13.7c1.03.49,3.03,3.18,3.66,2.97.26.08-.11-.53-.54-1.2-.51-.72-1.05-1.49-1.63-2.31-.09.03-.28-.08-.54-.3.52.84.78,1.47.23,1.37-.82-2.55-1.83-1.48-3.27-3.82-.87-.44,1.45,2.72,2.08,3.29Zm156.97,17.99c0,.1.04.4.1.81l-1.35-1.41c-1.85-2.91-2.67-5.7-5.08-7.81-.67-1.31-.77-2.18-.91-2.98.38.6.73,1.16,1.01,1.65,5.88,6.51,1.59,4.41,6.23,9.75Zm-22.52-31.94c.34-.24.49-.44.49-.44-3.84,2.88-6.5,4.85-9.07,6.59-2.54,1.73-4.78,3.1-6.59,4.12.93,0,4.33-1.56,5.96-2.28l-1.1,1.24-1.05.13-2.12,1.77c.83-.08,2.7-1.24,4.11-1.74.05-.15,3.85-3.04,4.79-3.96l-3.42,1.56c.48-.19,1.78-.94,3.17-1.77,1.16-.71,2.41-1.5,3.14-2,.01-.16-.64.02-1.36.37-.72.34-1.47.82-1.5,1.17-.24-.08.39-.56.85-.95.45-.38.75-.67-.35-.28,1.34-1.05,3.36-2.2,5.06-3.08.82,1.31,1.52,2.51,1.97,3.3-.06.3-.12.6-.18.88,1.01,1.9,1.32.52,2.61,3.06-.53-.71-.79-.99-.92-1.04-.14-.07-.15.06-.16.19-.02.27,0,.57-.67-.35.12.38-.02.49-.02.73.01.13,0,.23.16.52.15.29.4.68.81,1.25,2.02,1.41,1.22,2.71,3.09,4.08.61,1.35-1.32-1,.22,1.43,2.25,2.45,2.4,2.11,3.04,1.92-1.61-2.63-2.64-2.38-3.95-4.54l3.73,3.51c-.4-.85-.78-1.42-1.14-1.86.62.79,1.24,1.41,1.84,1.88.34.27.64.53.92.77-1.61-2.34-3.03-4.42-3.06-4.94l.47.15c-.34-.99-1.45-2.21-2.07-2.7-1.46-2.05-3.29-3.95-3.36-4.75l.79.65c-1.68-2.31-2.12-2.87-3.84-5.34-.12.07-.65.38-1.28.75Zm-89.55,50.94c2.2.02,4.5-.17,12.06-4.76l-.56.41c4.21-1.62,7.06-5.15,12.14-7.18-2.07,1.68-1.96,1.58-3.99,3.86l2.29-1.68c-.37.92,1.91-.76,3.71-1.77l-1.22,1.54c-1.18.44-4.01,1.99-3.84,2.08.57-.42-4.14,1.34-6.37,2.87.49.29,5.31-2.73,3.51-.77,1.77-1.41,2.25-1.13,4.19-2.45-1.77,1.41-.15.86-1.41,2l3.24-2.06c.17.09-4.66,3.11-1.63,2.06,1.2-.99,4.92-2.77,4.72-3.26l.16.09c2.55-1.34.72-1.28,3.93-2.79-.1-.25-.77-.07-1.84.61-.87.64-.83,1.03-2.7,2.2-1.06.14,2.33-1.28.65-1.12-.83.08-4.88,3.17-3.88,1.68l2.54-1.34c-.2-.49,1.61-1.51,1.35-1.85,1.42-1.05,3.15-1.36,4.48-2.65.47-.67-.97-.57,1.74-1.81,2.4-.48,8.23-4.03,10.39-5.41l1.77-1.41c-.33-.19-3.68,2.18-2.65,1.09l2.96-1.86-.13.31c1.02-.54,1.94-1.32,2.79-1.95-.75.87-3.01,2-2.3,2.23,1.47-.73,1.79-.67,3.04-1.52-.27.2-.48.39-.41.43,2.99-1.45,2.47-2.14,3.1-2.71,2.53-2.29-3.24,1.11-3.16.4l8.28-5.13c-.63.57-1.27,1.14-.88,1.18,2.19-.97.26.34,3.15-1.36-.58-.53,3.42-2.52,5.25-4.08,1.11-.29,1.34-.35-.75.87.48.28,3.2-1.5,4.23-2.04.52-.44,1.47-1.07,2.04-1.53-.96.27-.76-.2.96-1.43l.05-.15c-3.04,1.6-7.94,3.82-9.56,5.33l.41-.51c-3.66,1.63-7.06,5.09-9.11,5.21-.04-.4-.73.33-.94-.16l-2.33,1.82.41-.51-4.26,2.6.06-.15c-1.8,1.61-3.22,2.87-4.35,3.88.11.2.28.19-.32.73-.63.5-1.14.81-1.62,1.05h0s0,0,0,0c-1.09.55-1.96.68-3.34,1.31l3.99-2.37c.13-.53-.41-.68-2.52.22.8-.48.98-.94-.04-.4-.06.15-2.51,1.74-1.39,1.45-3.74,2.33-10.43,5.01-15.85,8.99,3.94-2.79-3.6,1.47.94-1.33-3.54,1.32-2.47,2.14-5.8,3.95-.39-.03,1.8-1.01,2.34-1.83-5.59,2.94-8.71,6.2-14.09,9.09l-.47-.29c-.97.63-2.05,1.33-3.17,2.06Zm-9.53,6.21l-.2.13-1.85-2.26c.06.09.12.18.18.28l-2.21-2.36c1.06,1.78,1.74,3.62-.37,1.15.3.06-.07-.85.65-.07-1-1.87-3.38-5.6-3.3-4.24,2.88,2.76-.25,1.25,2.04,3.5-1.41-1.12-2.16-2.51-3.27-3.66,1.28,1.07.51-.84-.77-2.92-.72-.79-2.32-3.17-3.52-4.47,0,.77-1.11-.31.5,2.07-.72-.78-1.75-2.04-2.64-3.65.49.54,1.28,1.53,1.36,1.36-.36-1.19-1.19-2.3-1.5-3.02-.38-.48-.76-.96-1.13-1.42.07.17.12.32.14.45l-1.51-1.39c1.76,2.04.56,1.12.33,1.25.47-.25-.96-1.44-1.52-2.17l.73,1.94c-.8-.61-1.69-2.99-1.83-2.26,2.32,3.55,3.36,4.81,5.75,7.8l-.57-1.51c2.8,3.31.97,2.59,3.85,6.49.75.7,1.84,2.16,2.82,3.41.49.62.96,1.19,1.34,1.58.19.18.37.35.54.47.16.11.29.15.38.1-.31-.21.08.62.77,1.72.68,1.1,1.65,2.47,2.33,3.09.46.28,1.07.86,1.69,1.5,2.3-1.7,4.65-3.19,3.48-2.79-.99.57-2.28,1.55-3.33,2.09-.28-.42-.52-.86-.69-1.31l.76.94,1.59-1.02-1.46.44-.1-.2c.04.07.08.13.1.18.68-.32.63-.72.43-1.23Zm-34.49-54.31s-.04-.06-.06-.1l.07.1h-.01Z" style="fill:#ffd220; stroke-width:0px;"/><path d="m802.91,269.21c.62.59,1.78,2.31,1.86,1.75-.32.28-2.16-3.01-1.86-1.75Z" style="fill:#ffd220; stroke-width:0px;"/><path d="m803.97,271.48c.17.06.24-.11.78.64l-1.54-2.04.76,1.4Z" style="fill:#ffd220; stroke-width:0px;"/><path d="m803.05,275.27c1.01.9,1.63,1.49,2.79,3.21-.41,1.23-2.17-2.62-3.5-2.84,2.08,3.18,3.49,3.62,5.33,6.14-.52-1.52-3.91-6.86-4.62-6.5Z" style="fill:#ffd220; stroke-width:0px;"/><polygon points="801.01 274.63 802.4 276.23 802.34 276.03 800.94 274.42 801.01 274.63" style="fill:#ffd220; stroke-width:0px;"/><path d="m782.45,231.9c.16-.34-.85-1.24-1.32-1.78.31.48.69,1.19,1.32,1.78Z" style="fill:#ffd220; stroke-width:0px;"/><path d="m506.77,237.19l-7.79,14.09c2.25-4.05,4.36-7.77,7.79-14.09Z" style="fill:#ffd220; stroke-width:0px;"/><path d="m741.38,207.11c1.79-1.21,3.04-2.18,4.3-3.14.32-.24.63-.47.96-.72l.25-.18.39-.26c.27-.18.54-.36.82-.54,1.12-.74,2.37-1.53,3.85-2.43-1.97.95-3.65,1.9-5.06,2.78-.13.09-.27.17-.39.26l-.32.22c-.2.15-.4.29-.6.43-.38.29-.75.57-1.11.85-1.43,1.12-2.76,2.18-5.03,3.1l1.94-.36Z" style="fill:#ffd220; stroke-width:0px;"/><path d="m741.41,204.1c.93.17-2.53,2.29-1.76,2.36,2.45-1.59.88-1.18,3.2-2.46l-1.44.1Z" style="fill:#ffd220; stroke-width:0px;"/><path d="m756.38,211.13c-.21-.12-.41-.22-.6-.31l.37.33.23-.03Z" style="fill:#ffd220; stroke-width:0px;"/><polygon points="724.62 214.42 724.97 214.06 722.99 214.98 724.62 214.42" style="fill:#ffd220; stroke-width:0px;"/><path d="m725.31,213.7l-.34.36.34-.36Z" style="fill:#ffd220; stroke-width:0px;"/><path d="m755.03,211.49l.29.65.21.05c.08.03.25.19.36.28l-.22-.29c-.07-.09-.07-.08-.11-.13l-.18-.2-.35-.37Z" style="fill:#ffd220; stroke-width:0px;"/><path d="m746.1,210.8l1.41-1.04c-.28.21-2.47,1.18-1.41,1.04Z" style="fill:#ffd220; stroke-width:0px;"/><polygon points="713.03 220.82 711.31 222.08 711.53 222.03 713.25 220.77 713.03 220.82" style="fill:#ffd220; stroke-width:0px;"/><path d="m735.13,219.08c1.28-.19-2.95,1.85-.59.97,1.87-1.17.97-.93.59-.97Z" style="fill:#ffd220; stroke-width:0px;"/><path d="m711.38,229.12c-.25.14-.5.31-.73.5.29-.2.53-.36.73-.5Z" style="fill:#ffd220; stroke-width:0px;"/><path d="m711.38,229.12c.8-.46,1.69-.77,2.17-1.2-1.1.39-1.43.67-2.17,1.2Z" style="fill:#ffd220; stroke-width:0px;"/><path d="m702.28,234.5l.74-.39c-.62.63-.29.4.28-.15.76-.46.64-.56.68-.7.12-.14.25-.28.38-.43-.2.19-.39.36-.54.51-1.19.68-1.91,1.12-1.54,1.16Z" style="fill:#ffd220; stroke-width:0px;"/><path d="m664.29,247.3c2.76-1.4,3.5-1.72,3.54-1.32,2.6-1.37,1.89-1.68,3.35-2.7-2.84,1.72-3.51,1.92-6.89,4.02Z" style="fill:#ffd220; stroke-width:0px;"/><path d="m671.18,243.28c.32-.19.62-.38.99-.61-.42.23-.73.42-.99.61Z" style="fill:#ffd220; stroke-width:0px;"/><polygon points="714.98 231.77 713.6 233.22 714.17 232.8 714.98 231.77" style="fill:#ffd220; stroke-width:0px;"/><path d="m660.23,249.43c.51-.27,1.3-.74,1.75-.86-.04-.4-2.26,1.12-1.75.86Z" style="fill:#ffd220; stroke-width:0px;"/><path d="m674.13,249.67c.38.04,2.03-1.07,2.77-1.4-1.02.54-2.18.43-2.77,1.4Z" style="fill:#ffd220; stroke-width:0px;"/><path d="m657.03,253.02c.12-.04.35.11.25.52.26-.36.44-1.2-.25-.52Z" style="fill:#ffd220; stroke-width:0px;"/><polygon points="669.21 252.44 669.65 252.32 671.37 251.06 669.21 252.44" style="fill:#ffd220; stroke-width:0px;"/><path d="m678.44,253.33c1.84-1.57-3.79.98-.43-1.39-4.81,2.25.66.33-2.75,2.22,2.05-1.02,3.3-1.1,3.18-.83Z" style="fill:#ffd220; stroke-width:0px;"/><path d="m675.26,254.16c-.3.15-.62.31-.96.51.38-.2.69-.37.96-.51Z" style="fill:#ffd220; stroke-width:0px;"/><path d="m646.55,251.8c.24.25.42.41.59.56-.19-.2-.38-.38-.59-.56Z" style="fill:#ffd220; stroke-width:0px;"/><path d="m664.65,260.7l2.76-2.35c-.46.39-1.13.87-1.87,1.38-.79.53-1.63,1.09-2.4,1.61-2.24,1.44-4.11,2.7-3.81,2.91,1.35-.7,2.85-1.58,4.12-2.39.15-.1.29-.19.43-.28.09-.07.19-.13.27-.19.18-.13.34-.26.5-.37.31-.24.56-.46.73-.64l-.73.33Z" style="fill:#ffd220; stroke-width:0px;"/><path d="m641.82,230.6l1.12,1.09-1.07-1.6c.25.5-.73-.02-.04.51Z" style="fill:#ffd220; stroke-width:0px;"/><path d="m641.65,229.79l.21.31c-.04-.08-.1-.17-.21-.31Z" style="fill:#ffd220; stroke-width:0px;"/><path d="m650.9,257.23c.73,1.08,1.37,1.93,2.12,2.75-.24-.54-2.01-3.15-2.12-2.75Z" style="fill:#ffd220; stroke-width:0px;"/><polygon points="634.65 222.4 636.24 224.39 634.56 222.18 634.65 222.4" style="fill:#ffd220; stroke-width:0px;"/><polygon points="628.53 212.17 628.38 211.74 626.94 210.18 627.11 210.61 628.53 212.17" style="fill:#ffd220; stroke-width:0px;"/><path d="m627.35,232.26c.96,1.43,2.23,2.17,2.06,1.74l-1.99-2.68c.09.99.56.74,1.6,2.38l-1.67-1.43Z" style="fill:#ffd220; stroke-width:0px;"/><path d="m571.5,135.78c.85.59,4.78,6.29,4.79,6.85-.59-.57-2.67-3.19-1.48-1.2,1.09,1.01,2.23,2.11,3.44,3.28,1.9,3.04.87,2.11-.74.32-1.63-1.81-3.85-4.47-4.8-5.53,1.89,2.67,3.15,4.22,4.51,5.87.68.84,1.37,1.69,2.17,2.66.37.47.76.98,1.19,1.53.27.35.56.72.86,1.14-.33-.52-.57-.97-.76-1.36-.35-.65-.64-1.2-.9-1.69.07-.15.37.09.82.62.19.23.42.51.69.83.17.21.35.45.55.71.78,1.04,1.72,2.42,2.56,3.53-.84-1.58-.06-.88.89.02.15.18.27.28.37.35.11.1.22.2.33.3l-.2-.27c.07-.02.09-.13.04-.39-1.51-1.78-2.17-3.51-3.05-4.73.02.44-.16.41-.48.1-.15-.09-1.15-1.44-2.08-2.73-1.9-2.64-4.28-6.08-5.4-7.37l-2.49-3.24-.92-1.25c-.17-.41.1-.27,1.58,1.43-1.24-1.38-5.19-6.89-4.8-5.84l-.49-.67-7.12,12.33c-.26.36-.52.72-.74.96-.23.51-.24.63-.18.62l-19.06,33.05c.92-1.43,1.84-2.59,2.81-4.05-.76,2.59,1.54-2.43,1.67-1.46-.4,1.13-1.33,2.59-1.97,3.41.07.48,1.04-.65,1.27-.32,2.5-3.56,1.57-4.87,3.89-8.43.23.33-.15,1.62,1.2-.8l-.29.65c1.87-4.05,2.45-2.58,2.98-5.51l.42.33c.67-1.94,2.63-5.34,3.67-7.29l.02.17c.33-.71.59-1.29.82-1.77.08-.18.31-.62.47-.93.17-.33.33-.63.48-.9.58-1.1.97-1.78,1.39-2.49.84-1.43,1.75-2.9,4.68-8.21l-2.4,5.38c1.05-1.56,1.59-2.7,2.08-3.8.49-1.09.92-2.13,1.65-3.34-.07.33.35.37-.93,2.77l3.36-6.74,4.25,5.01c2.16,2.29-.33-1.1-.64-1.91Z" style="fill:#ffd220; stroke-width:0px;"/><path d="m581.44,150.71c.24.38.53.79.9,1.27-.34-.47-.62-.88-.9-1.27Z" style="fill:#ffd220; stroke-width:0px;"/><path d="m539.41,178.1l1.21-2.09c-.4.63-.8,1.3-1.21,2.09Z" style="fill:#ffd220; stroke-width:0px;"/><path d="m589.52,159.8c-.64-1.34.96.66,1.27.75l-3.1-4.23c-.15.14-.64-.15-.73.05l2.56,3.43Z" style="fill:#ffd220; stroke-width:0px;"/><path d="m587.1,154.87c-.22-.06-.65-.43-1.11-.87l1.7,2.32c.11-.1.03-.45-.59-1.45Z" style="fill:#ffd220; stroke-width:0px;"/><polygon points="578.67 161.71 578.11 160.98 577.16 159.93 578.67 161.71" style="fill:#ffd220; stroke-width:0px;"/><path d="m571.67,150.62c.35,1,1.35,1.97,1.73,2.35-1.07-1.45-.55-.94-1.73-2.35Z" style="fill:#ffd220; stroke-width:0px;"/><path d="m570.96,155.24l-.55-.46v.12c.18.1.36.21.55.34Z" style="fill:#ffd220; stroke-width:0px;"/><path d="m532.26,194.6c-.18.34-.36.66-.54,1.01.26-.45.42-.75.54-1.01Z" style="fill:#ffd220; stroke-width:0px;"/><path d="m541.87,176.98c-3.31,4.53,1.4-3.41-.13-2.27l-1.3,2.75-.05-.33-1.8,3.24c.68-.48.99-.97,1.22-.64-2.6,4.21-1.16,1.13-3.37,4.04l-2.71,4.81.13-.44c-.23.41-.29.61-.32.78l-9.13,16.22c-1.44,3.08,1.51-1.29.72,1.14,1.96-3.4,5.22-8.25,4.76-8.9.02.16.07.49.54-.16l.62-2.26-1.25,1.78c.63-2.27,4.43-8.59,5.42-9.56-1.92,3.73-.25,2.27-3.51,7.13.29-.13,1.11-.9.54.29,3.24-6.03,6.6-11.17,9.61-17.62Z" style="fill:#ffd220; stroke-width:0px;"/><path d="m507.8,236.56l-.03-.08c-.03.12-.03.17.03.08Z" style="fill:#ffd220; stroke-width:0px;"/><path d="m509.03,234.62l1.05-3.24-2.55,4.53.24.58c.12-.46.81-2.17,1.34-2.68l-.08.82Z" style="fill:#ffd220; stroke-width:0px;"/><path d="m511.65,227.8c-1.16,2.43-.58,2.6.39,1.47-1,2.27-1.2.81-1.51,2.59.4.16,1.7-2.59,1.98-3.23l-.86-.82Z" style="fill:#ffd220; stroke-width:0px;"/><polygon points="521.84 210.81 521.67 211.59 522.66 210.01 521.84 210.81" style="fill:#ffd220; stroke-width:0px;"/><path d="m521.67,211.59l-.98,1.57c.22-.02.44-.04.7-.24l.29-1.33Z" style="fill:#ffd220; stroke-width:0px;"/><path d="m518.12,217.26c-.43.65-.89,1.39-1.43,2.29l1.43-2.29Z" style="fill:#ffd220; stroke-width:0px;"/><path d="m519.3,215.51l-.1.02-1.09,1.74c.42-.63.81-1.19,1.19-1.75Z" style="fill:#ffd220; stroke-width:0px;"/><path d="m520.69,213.15c-.51.05-1.06.14-2.3,2.51l.81-.14,1.48-2.37Z" style="fill:#ffd220; stroke-width:0px;"/><polygon points="567.4 153.93 567.11 154.9 567.2 154.88 567.48 153.92 567.4 153.93" style="fill:#ffd220; stroke-width:0px;"/><path d="m562.57,161.53c-.2.49-.33.87-.44,1.22.24-.5.4-.91.44-1.22Z" style="fill:#ffd220; stroke-width:0px;"/><path d="m560.47,170.79c-1.6,1.94,1.24-3.24-1.22.65-.54.16.11-1.96,1.36-3.74.23.33-.85,1.94.13.98.36-1.46.88-1.79.15-1.63.92-2.27.71-2.69,1.23-4.29-1.26,2.65-4.82,7.69-6.07,11.25-.45,2.1.95,1.48,1.77,1.96.35-.15,3.1-4.69,2.65-5.18Z" style="fill:#ffd220; stroke-width:0px;"/><path d="m563.25,167.88c.62-.97.76-1.29,1.04-1.94-.38,0-.59,1.13-1.04,1.94Z" style="fill:#ffd220; stroke-width:0px;"/><path d="m543.81,187.15c0,.26-.89,2.14-.46,1.87l1.43-2.81c-.39.63-.66.77-.97.94Z" style="fill:#ffd220; stroke-width:0px;"/><path d="m545.41,184.98l-.63,1.23c.18-.29.38-.67.63-1.23Z" style="fill:#ffd220; stroke-width:0px;"/><path d="m543.66,187.24s.09-.06.15-.09c0-.05-.03-.06-.15.09Z" style="fill:#ffd220; stroke-width:0px;"/><path d="m514.08,223.76c-.2-.17-.77,1.12-1.06,1.77.31-.49.78-1.14,1.06-1.77Z" style="fill:#ffd220; stroke-width:0px;"/><path d="m488.47,270.06l-.8.97c.33-.32.49-.48.8-.97Z" style="fill:#ffd220; stroke-width:0px;"/><path d="m485.08,290.19c.03.06.02.16-.01.28.03-.12.04-.22.01-.28Z" style="fill:#ffd220; stroke-width:0px;"/><path d="m485.07,290.48c-.24.84-1.84,2.94-2.03,3.92l-.03-.15-.71,1.61c.8-1.44,2.56-4.4,2.76-5.38Z" style="fill:#ffd220; stroke-width:0px;"/><path d="m773.43,106.31c.21,1.07,0,2.05-.18,1.66.65,2.14.24,2.23.98,2.44.47,1.39.09,2.94-.33,1.35.26,1.34.51,2.69.67,4.06.01-.82.05-1.64.01-2.46.7.64-.06,3.93.68,4.7-.07-1.49-.09-2.98-.2-4.47l.22.21c-.29-1.01-.35-2.98-.32-3.68.11.1.27.01.34.8-.24-2.71-.61-3.03-.91-3.24-.16-.1-.33-.18-.5-.5-.17-.32-.35-.89-.6-1.97.06.27.12.61.14,1.09Z" style="fill:#ffd220; stroke-width:0px;"/><path d="m774.04,101.54l-1.17-1.67c-.15-1.05-.4-2.07-.62-3.1-.26.03-1.09-2.11-.89-.55.12.28.36.83.47,1.3-.32-.09-.67-1.07-.98-1.9-.33-.82-.64-1.47-.77-.95.9,2.29.82,2.7,1.7,4.04.47,2.22.75,3.84.71,4.92.2.64.56.67.78,1.5-.04-.19-.08-.36-.12-.57l.82-.24c-.31-.68-.32-1.37-.52-2.14.58,1.14,1.1,2.3,1.65,3.48.29-.66.15-1.88-.05-3.13-.23-1.24-.58-2.49-.58-3.25-.29,1.95-.67-1.33-.45,2.26Z" style="fill:#ffd220; stroke-width:0px;"/><path d="m773.27,105.13s.01.06.02.09c0-.03-.01-.07-.02-.09Z" style="fill:#ffd220; stroke-width:0px;"/><path d="m639.8,159.17c.43.58.72.64.86.67-.79-1.11-1.6-2.2-2.31-3.36l-1.1-1.72-1.02-1.77c-.07.33.87,2.52-.03,1.22.11.76,1.47,2.46,1.89,2.55l-.61-.32c1.37,1.37,1.41,2.91.49,2.03l.09.13c1.49,1.12,2.93,2.24,4.47,3.23-1.1-1.56-1.39-.79-2.74-2.66Z" style="fill:#ffd220; stroke-width:0px;"/><path d="m769.25,130.13c-.11,1.07-.06,1.22.05,1.11,0-.39,0-.77-.05-1.11Z" style="fill:#ffd220; stroke-width:0px;"/><path d="m643.6,162.54c.46.32.97.59,1.45.89-.52-.4-1.06-.69-1.45-.89Z" style="fill:#ffd220; stroke-width:0px;"/><path d="m630.31,157.37s-.06,0-.07.07l.64.56s-.01-.02-.01-.02c-.2-.22-.39-.42-.56-.61Z" style="fill:#ffd220; stroke-width:0px;"/><path d="m673.69,181.92c.16.05.3.09.49.15-.18-.07-.34-.11-.49-.15Z" style="fill:#ffd220; stroke-width:0px;"/><path d="m618.57,135.36c.5,1.31.91,2.63,1.48,3.91-.38-.47.23,1.44-.28.67.12.3.62,1.7.63,1.27l-.25-.81c1.28,1.89,1.12.58,2.77,3.78-.16-1.11-.4-1.86-.69-2.47-.26-.61-.58-1.08-.89-1.6-.16-.37-.27-.68-.39-1-.65-1-1.19-2.04-1.77-3.08l-.61-.68Z" style="fill:#ffd220; stroke-width:0px;"/><path d="m746.64,176.75v.07s.01-.06,0-.07Z" style="fill:#ffd220; stroke-width:0px;"/><path d="m746.65,177.1v-.28c-.1.22-.67.8,0,.28Z" style="fill:#ffd220; stroke-width:0px;"/><path d="m642.88,162.36c.13-.04.38.02.72.18l-1.05-.7c.1.14.22.34.34.52Z" style="fill:#ffd220; stroke-width:0px;"/><path d="m639.96,161.09l-1.89-2.48-.93-.77c.74.95,1.67,2.01,2.81,3.25Z" style="fill:#ffd220; stroke-width:0px;"/><path d="m669.59,179.75c5.57,2.39-1.7.14.77,1.47,1.59.63,2.32.42,3.34.71-2.31-.73-2.04-.97-1.76-1.22.28-.26.54-.49-1.68-1.39.46-.19,1.31.01,2.24.31.94.28,1.94.71,2.65,1.1.75.61.33.61-.36.49-.68-.14-1.62-.38-1.95-.15,1.85.6,1.56.39,2.47.29,1.41.55,2.94.89,4.33,1.13.69.13,1.33.3,1.91.49.58.17,1.07.41,1.46.74,2.16.36,2.1-.05,3.38-.17.18-.34-.59-.57-1.48-.81-.89-.27-1.91-.58-2.22-.94.14.1.43.29.31.37-.59-.2-1.18-.35-1.76-.58,1.63.7-.42.66-1.35.43-.67-.17-2-.52-1.75-.67.34.07.7.09,1.04.14-.61-.28-1.35-.39-2.09-.53-.74-.14-1.5-.27-2.09-.72-.01-.18.51-.06.62-.13-1.64-.11-3.08-.64-5.36-1.33l1.54-.1c-2.05.02-5.82-2.13-8.11-4.02.22.27.69.64.31.58-1.58-.75-2.4-1.91-1.52-1.78-.43-.11-.98-.38-1.57-.8-.58-.42-1.22-.95-1.87-1.47-.66-.52-1.28-1.12-1.92-1.59-.64-.47-1.25-.87-1.8-1.11-3.5-1.33-6.94-3.03-10.28-5.07.34.26.69.54,1.02.87.19,1.18.62,1.56-1.01.6,1.4,1.12,1.36.24,3.18,2.14-.93-.53-1.68-.2.08,1.67,1.27.99,2.47,1.84,3.71,2.51,1.2.71,2.42,1.27,3.62,1.8,2.4,1.06,4.83,1.87,7.47,2.98-.04.26.94.92,2.15,1.67,1.23.71,2.72,1.47,3.68,1.99-.98.12-2.51-.49-4.06-1.2.92.54,2.55,1.4,3.77,2l.94-.71Z" style="fill:#ffd220; stroke-width:0px;"/><path d="m656.43,173.82c.1.13.22.24.34.35-.05-.08-.15-.19-.34-.35Z" style="fill:#ffd220; stroke-width:0px;"/><path d="m664.43,178.18s-.03.02-.04.04c.16.08.32.16.49.24-.16-.1-.33-.2-.44-.27Z" style="fill:#ffd220; stroke-width:0px;"/><path d="m642.97,164.22c-.36-.2-.58-.39-.92-.61.18.16.4.36.62.55.23.16.36.22.3.05Z" style="fill:#ffd220; stroke-width:0px;"/><path d="m642.82,162.68l.28.03c-.09-.14-.15-.24-.23-.36-.11.03-.15.13-.05.33Z" style="fill:#ffd220; stroke-width:0px;"/><path d="m691.41,190.12l.63-.06c-.37-.02-.54.01-.63.06Z" style="fill:#ffd220; stroke-width:0px;"/><path d="m675.56,183.05c-2.03-.65-.49.64-3.33-.46l.82.37c-2.18-.45-5.63-2.22-7.93-3.42.39-.1-1.21-1.08-.72-1.33-.79-.4-1.58-.78-2.29-1.09-.7-.34-1.34-.58-1.85-.63-.86-.69-2.44-1.35-3.48-2.32.33.57-2.19-.42.81,1.3-.25-.13-.14.02-.39-.11,1.58,1.63,2.73,1.52,4.32,2.55.82.85-1.8-.64-.95.03,1.06.57,2.67,1.53,4.03,2.3,1.4.7,2.55,1.17,2.7.67,1.58.69,1.72.96,2.11,1.35.73.04,1.66.35,2.68.7,1.01.37,2.09.86,3.12,1.23,2.04.81,3.83,1.31,4,.65-.48-.12-1.11-.27-1.8-.44-.68-.19-1.43-.38-2.17-.47l.32-.9Z" style="fill:#ffd220; stroke-width:0px;"/><path d="m645.51,166.98c.09.1.22.23.29.32-.09-.1-.19-.21-.29-.32Z" style="fill:#ffd220; stroke-width:0px;"/><path d="m634.56,141.84l1.17.49c.49,1.13.9,2.08,1.31,2.92.4.84.69,1.61,1.06,2.32.35.72.69,1.42,1.06,2.19.39.76.86,1.55,1.4,2.49.06.35-.27-.07-.44-.28,1.61,2.58,4.06,6.45,5.83,7.88.55.79,2.05,2.85,1.21,2.31.37.31.78.66,1.12,1.09-.15.33-.87-.86-1.09-.71.27.34.33.51.47.52-.69-.37-.32,1.31-2.57-1.31-.27-1.5,1.62,1.76,1.75.61-.74-.86-.9-.55-1.04-.56-.92-1.12-.7-1.25-.51-1.3-.53-.28-1.41-1.9-2.14-2.3-1.68-2.25.6-.24-.47-1.73-.43-.13-.88-.25-1.31-.39l-1.52-2.66c-1.23-1.84-1.47-1.53-1.77-1.26-.28.25-.7.5-2.11-1.69.35.2.45-.25.36-1.02-.11-.77-.4-1.85-.79-2.98.3.64.85,1.5,1.45,2.39.58.89,1.13,1.85,1.5,2.69-.7-2.55,1.83,3.02,1.82,1.48-.92-.91-2.06-2.7-2.6-4.26l.31.44c-.73-1.57-2.08-2.4-2.75-4.75-.46-1.11-.16-.99.1-.87-.49-.89-.98-1.68-.8-1.74Zm1.12,2.35c.17.5.38.99.57,1.49-.02-.4-.29-.94-.57-1.49Z" style="fill:#ffd220; stroke-width:0px;"/><path d="m764.5,77.87c.07.17.15.36.22.52-.03-.13-.12-.32-.22-.52Z" style="fill:#ffd220; stroke-width:0px;"/><path d="m629.84,80.41l.55-.91c-.23.35-.41.64-.55.91Z" style="fill:#ffd220; stroke-width:0px;"/><path d="m642.47,59.56l1.03-1.26c-.45.45-.76.85-1.03,1.26Z" style="fill:#ffd220; stroke-width:0px;"/><path d="m757.13,67.62l-.03-.04c-.07-.05-.12-.1-.19-.16l.22.2Z" style="fill:#ffd220; stroke-width:0px;"/><path d="m686.7,40.13c.25.04.52.07.89.07-.05-.08-.39-.1-.89-.07Z" style="fill:#ffd220; stroke-width:0px;"/><path d="m642.28,59.79s.05-.04.08-.06c.03-.06.07-.12.11-.18l-.19.23Z" style="fill:#ffd220; stroke-width:0px;"/><path d="m623.08,89.05c-.06.23-.11.44-.18.68.11-.31.15-.51.18-.68Z" style="fill:#ffd220; stroke-width:0px;"/><path d="m625.88,88.52c-.07.24-.13.46-.17.65l.17-.65Z" style="fill:#ffd220; stroke-width:0px;"/><path d="m618.72,124.74l.23,1.45c-.07-.71-.15-1.14-.23-1.45Z" style="fill:#ffd220; stroke-width:0px;"/><path d="m624,91.89c0,.09.02.18.04.25.04-.2.02-.3-.04-.25Z" style="fill:#ffd220; stroke-width:0px;"/><path d="m766.43,86.95s-.03-.06-.04-.08h-.1s.14.08.14.08Z" style="fill:#ffd220; stroke-width:0px;"/><path d="m768.9,89.57c.17.37.34.75.52,1.12-.16-.43-.35-.83-.52-1.12Z" style="fill:#ffd220; stroke-width:0px;"/><path d="m707.5,41.26c.36.17,1.21.43.79.51.74-.08.75-.52-.79-.51Z" style="fill:#ffd220; stroke-width:0px;"/><path d="m758.75,83.58c.2.12.41.3.61.48-.35-.35-.64-.66-.61-.48Z" style="fill:#ffd220; stroke-width:0px;"/><path d="m759.36,84.06c.17.17.35.36.52.51-.17-.19-.35-.36-.52-.51Z" style="fill:#ffd220; stroke-width:0px;"/><path d="m697.95,47.7c-.09-.06-.22-.1-.4-.11.05.11.2.13.4.11Z" style="fill:#ffd220; stroke-width:0px;"/><path d="m769.65,91.67c.27.12,2.41,5.11,1.05.77.63-.04,1.26,2.67,1.69,3.81-.1-.9.51.31.65-.01-.25-.56-.59-1.22-.89-2.18.12-.53.82.86,1.02,2.05-.09-1.52.99,1.67.66-.42-1.52-4.24-2.89-7.15-5.03-9.61.29.56.6,1.14.9,1.72.27.59.54,1.19.79,1.78.25.59.49,1.17.69,1.74.18.57.33,1.12.43,1.63l-.79-.64c-.13-1.19-.5-2.06-.85-2.93-.36-.87-.78-1.7-1.24-2.75.65,1.59,1.13,3.25,1.68,4.87.18,1.21.11,1.45-.09,1.16-.19-.29-.52-1.09-.93-1.95.16.43.29.83.24.98Z" style="fill:#ffd220; stroke-width:0px;"/><path d="m764,90.34l.02.08c.04.06.09.13.12.17l-.14-.25Z" style="fill:#ffd220; stroke-width:0px;"/><path d="m629.67,123.6l.23.37c-.12-.32-.19-.41-.23-.37Z" style="fill:#ffd220; stroke-width:0px;"/><path d="m765.22,86.63h0s-.02-.03,0,0Z" style="fill:#ffd220; stroke-width:0px;"/><path d="m629.62,113.83s.03.03.04.05c-.01-.04-.03-.04-.04-.05Z" style="fill:#ffd220; stroke-width:0px;"/><path d="m618.14,110.07s-.05.02-.08.07c.01.25.05.13.08-.07Z" style="fill:#ffd220; stroke-width:0px;"/><path d="m629.57,113.82s.03,0,.05.01c-.02,0-.03-.03-.05-.01Z" style="fill:#ffd220; stroke-width:0px;"/><path d="m646.59,69.71s-.18.05-.41.16c-.03.1.08.07.41-.16Z" style="fill:#ffd220; stroke-width:0px;"/><path d="m639.82,76.71c-.05.04-.09.06-.15.11l.15-.11Z" style="fill:#ffd220; stroke-width:0px;"/><path d="m705.23,38.55c-.54-.05-.94-.07-1.28-.07.39.04.82.07,1.28.07Z" style="fill:#ffd220; stroke-width:0px;"/><path d="m629.66,113.89c.05.1.1.24.15.48-.06-.26-.11-.39-.15-.48Z" style="fill:#ffd220; stroke-width:0px;"/><path d="m656.13,57.85c-.08.08-.15.15-.22.23l.16-.08.05-.14Z" style="fill:#ffd220; stroke-width:0px;"/><path d="m660.72,55.34c-.12.14-.16.24-.22.33.75-.56,1.89-1.21,2.86-1.81.99-.55,1.8-1.06,1.86-1.41-.28.15-1.19.52-1.99.79-.79.28-1.46.49-1.3.2-1.07.77-2.96,1.4-3.49,1.89,1.99-.9.45.29-.66,1.23-1.2.57-.05-.52-1.06,0l-2.46,1.83,2.22-1.48-.34.93c.07-.07.12-.12.19-.2,1.77-1.38,1.99-1.22,2.18-1.13.2.11.38.16,2.23-1.17Z" style="fill:#ffd220; stroke-width:0px;"/><path d="m660.5,55.68c-.23.16-.4.34-.53.49.35-.24.45-.37.53-.49Z" style="fill:#ffd220; stroke-width:0px;"/><path d="m677.31,49.22c.21-.08.44-.17.72-.3-.14.06-.45.19-.72.3Z" style="fill:#ffd220; stroke-width:0px;"/><path d="m636.02,155.92c.08-.15-.89-2.55-1.25-2.3.34.69.69,1.38,1.04,2.07l.21.22Z" style="fill:#ffd220; stroke-width:0px;"/><path d="m726.05,49.13c-.27-.12-.54-.23-.82-.33-.07,0-.13,0-.18,0,.14.12.71.27,1,.34Z" style="fill:#ffd220; stroke-width:0px;"/><path d="m662.53,52.87c-.39.3-.54.46-.61.58.25-.19.48-.38.61-.58Z" style="fill:#ffd220; stroke-width:0px;"/><path d="m725.82,50.13c.3.25.73.62.74.8.68.31,1.25.33,1.99.57-.82-.28-1.69-.79-2.73-1.37Z" style="fill:#ffd220; stroke-width:0px;"/><path d="m728.61,51.52l-.06-.02s.04.01.06.02Z" style="fill:#ffd220; stroke-width:0px;"/><path d="m636.7,157.31c.14.17.29.35.45.53l-.29-.24c.29.52.56,1.06.87,1.56.15.16.3.33.48.56-.08-.09-.17-.13-.24-.15.1.17.19.33.29.5,1.15.94,3.57,3.5,4.42,4.1,1.03.87,2.13,2.07,2.83,2.81-.66-.67-1.52-1.59-1.47-1.13.52.82.85,1.5,1.37,2.24.52.74,1.23,1.56,2.68,2.47-.47-.45-.96-.89-1.42-1.35,1.29.79,2.54,1.6,3.84,2.31.45.65-.04.38-.73-.07-.67-.47-1.52-1.15-1.86-1.23,2.75,2.03,4.19,4.76,5.96,5.1-.11.51-.35,1.44,1.55,2.71-1.01-1.4,1.32.5.57-.77.79.23,1.96,1.59,2.28,1.34l-.29.06c1.41,1.37,2.55,1.98,3.56,2.23,1,.27,1.81.3,2.63.5,1.04.47,1.92.91,2.71,1.32.81.38,1.53.73,2.24,1.06.69.35,1.38.67,2.11.96.73.3,1.49.62,2.37.92.02.35.69,1.53,2.14,1.98.8-.17,4.13.53,4.59.06-2.5-.94-2.22-.13-3.81-.44-1.08-.99.06-.6-1.54-1.52,1.29.78,6.37,1.59,7.82,2.44l-.57-.05c1.2.47,1.87,1.02,2.8,1.48.46.23.98.43,1.67.57.68.13,1.54.15,2.63.08.69-.03,1.38-.04,2.08-.12-.1.05-.12.11-.18.16,3.34.31,2.41.93,6.15.51-.29.03-.11.1-.4.13,1.06.21,2.13.08,3.13-.08,1-.16,1.92-.37,2.71-.52,1.01.4-.2.48-.79.87,3.78-.02,7.71-1.42,9.83-2.43.8-.03,1.59-.15,2.39-.23-1.33.54-2.96,1.32-2.48,1.52,1.3-.32.99-.5,2.84-.83-.24.36-.95.83-1.75,1.39,3.96-.38.61-1.24,3.51-.95,1.2-.32,1.76-.95,1.79-1.33.75-.06,1.52-.07,2.27-.17.09-.54,2.69-1.37,4.31-2.14.12-.27-1.5.08-2.08.46.02-.36,1.7-1.23,2.82-1.66.4.4,2.21-.46,3.8-1.2,1.57-.79,2.92-1.49,2.55-.65,1.21-.67,2.46-1.53,3.78-2.34,1.28-.88,2.61-1.75,3.83-2.69,1.22-.93,2.39-1.83,3.36-2.72.49-.44.95-.85,1.37-1.23.4-.4.76-.77,1.07-1.11.53-.29,1.27-.82,1.76-1.13.48-.33.74-.41.36.26.8-.76,1.46-1.48,2.06-2.17.58-.7,1.06-1.4,1.56-2.07.51-.67.99-1.35,1.52-2.07.53-.72,1.19-1.42,1.89-2.25.16-.1-.14.29-.44.71-.32.41-.63.85-.46.9,1.53-2.42,3.64-3.77,5.86-7.65-.39.64-.34.93-.31,1.08-.18-.02.7-1.72,1.19-2.77.41-.51-.36.79-.06.54,2.45-3.54,3.95-7.08,5.15-10.65,1.21-3.58,2.02-7.24,3.01-11.34-.52,2.35-.23,3.38.04,3.49.22-.77.46-1.53.62-2.31-.12-.98.34-2.71.32-4.23.15-.16.41-.85.43-.09.77-2.26.67-4.16.55-6.14-.09-1-.19-2.02-.22-3.15-.08-1.13-.1-2.36.02-3.79l.56,3.49c.15,1.17.26,2.35.4,3.54l.58-1.71c.11,1.05.27,2.11.31,3.17.59-1.83-.18-3.53.35-3.72.11.4,0,1.36.25,1.41.32-1.79,0-1.96-.07-3.32.25.9.33,2.02.38,3.26.07,1.24,0,2.58-.1,3.93-.07,1.35-.28,2.7-.45,3.95-.15,1.26-.4,2.39-.55,3.34-.06.61-.12-.56-.19-.68-.16.76-.37,1.35-.57,2-.22.64-.46,1.32-.64,2.29.07,1.29.55-.81.86-1.73.32.22.16.69-.08,1.75-.48.1-1.92,5.64-3.08,6.68-.97,2.7-.68,2.59-.3,2.48.35-.12.67-.27-.6,2.27-.39.44-.82.86-1.24,1.28-1.02,3.14-2.92,7.02-5.15,10.03l.44-.65c.11-.56-.52.06-.84.3-.91,1.08-1.58,2.23-2.28,3.2-.69.98-1.3,1.85-2.09,2.3-1.55,2.87-5.04,7.02-7.69,9.65-.62.05.2-.86,1.26-1.95,1.01-1.14,2.3-2.45,2.65-3.17-.77.8-1.6,1.55-2.4,2.32,1.49-1.43,1.89-2.18,2.42-3.37-1.03,1.02-1.67,1.74-2.23,2.52-.56.78-1.1,1.57-2.1,2.54.03-.29-.33-.14-1.29.69l.04.61s-.17.05-.51.27c-1.23,1.09-2.45,2.22-3.76,3.23.97-.45,1.29-.1,2.31-.9-.53.06.29-.66,1.31-1.45-.69.95,1.16-.56,1.3-.35-1.01.81-2.14,1.71-3.19,2.55-1.07.8-2.04,1.55-2.7,2.1l-.71-.07c-1.07.61-2.11,1.35-3.09,1.97-1,.61-1.91,1.17-2.67,1.53l.34-.47c-1.31.67-2.61,1.34-3.88,1.99-1.29.59-2.56,1.14-3.85,1.45-2.22,1.47-5.22,3-7.17,4.12-.48.42-2.41.86-4.59,1.16-2.16.39-4.56.63-5.98,1.3-.2-.01,1.97-.79,2.93-1.18-.99.13-1.84.44-2.54.66-.7.21-1.25.29-1.6.03,1.12-.08,1.65-.18,1.86-.26.21-.08.09-.13-.1-.18-.39-.1-1.08-.2-.11-.46-1.02.18-2.08.32-2.99.5-.92.18-1.71.35-2.21.48,3.36-.34-1.11,1.02,2.27.34-1.29.46-2.85.71-4.49.94-1.64.2-3.36.21-4.95.14.03-.26-.36-.4-1.54-.53l-.97.36c-1.48-.11,2.88-.38-.1-.59-.77.16-1.74.16-2.77.09-1.03-.08-2.13-.14-3.17-.31-1.04-.14-2.03-.26-2.85-.28-.82-.04-1.48,0-1.86.24-1.12-.44,0-.36.98-.33.49.03.94.02,1.06-.06.12-.08-.11-.2-.95-.5,2.08-.12,4.81.73,5.54.14-2,.02-.67-.57-1.94-.72l-2.24.09.48.08c-.94.04-2.01-.06-3.15-.21-.57-.08-1.16-.17-1.77-.26-.6-.13-1.21-.26-1.83-.4-.62-.14-1.25-.29-1.88-.43-.62-.18-1.24-.35-1.86-.53-.62-.18-1.23-.35-1.83-.52-.6-.19-1.18-.38-1.75-.57-4.01-.73-7.01-.99-11.39-3.3.73.17-.14-.37-.81-.85-.66-.49-1.11-.92.4-.48-1.82-1.36-3.92-2.16-4.1-1.97,1.67,1.1.56.43,1.95,1.38-.57-.15-1.44-.53-2.23-1.02-.79-.49-1.54-1.04-1.94-1.42.41.29.28.14.43.11-1.89-1.47-1.14-.35-2.63-1.23-.1-.34-.85-.92-1.73-1.55-.85-.67-1.82-1.4-2.36-1.98-.74-.29-1.44-.65-2.16-.99,1.23.5-1.58-1.55-1.56-2.1-1.38-.92-2.79-1.47-4.43-3.39.88.6-1.36-1.87-1.04-2.22-.62-.88-1.28-1.6-1.95-2.25-.64-.68-1.29-1.28-1.93-1.89-.66-.6-1.26-1.23-1.83-1.94-.56-.71-1.13-1.47-1.54-2.42.15.05.83.58.28-.47-.59-.73-1.47-2.11-1.99-2.96l.03.02s-.02-.02-.04-.04c-.26-.41-.46-.65-.56-.61-.61-.64-1.12-1.1-1.72-1.76-.57-.67-1.24-1.54-2.18-2.99-.32.43,1.15,2.96,1.91,3.97l.96.7c-.06.63.35,1.29.8,1.88.47.58.99,1.09,1.09,1.49-.45-.32-1.01-.86-1.56-1.59-.55-.73-1.13-1.6-1.73-2.52-1.14-1.88-2.3-3.97-3.25-5.51.21,2.31,2.35,6.66,4.65,10.17-.25-.57-.51-1.13-.72-1.72.35.64.77,1.24,1.16,1.85-.23-.69-.48-1.36-.67-2.06.47.92,1.03,1.7,1.54,2.49.51.78,1.03,1.53,1.57,2.29-1.28-1.77-1.11-2.89-.55-1.79.96,2.27,1.7,1.88,2.73,3.39-.56-.86-1.32-1.95-.6-1.41.79,1.66,1.5,2.56,2.13,3.48.63.92,1.29,1.76,2.14,3.21.18-.43.84.36,1.64,1.18.79.83,1.64,1.75,2.05,1.69l-1-1.15c.86.67,1.71,1.33,2.61,1.94,1.7,2.53-2.39-1.34.59,2.14,3.09,2.87,3.57,2.14,6.19,4.11-.57-.14-1.44-.54-2.42-1.11-.97-.59-2.03-1.4-3.04-2.27l1.07,1.24c-.86-.32-3.56-2.9-4.83-4.25,1.27.9,1.05.6.42-.06-.61-.68-1.62-1.75-1.93-2.4-.52.13.89,1.51-.98.07.75.79,1.18,1.25,1.66,1.75.48.51.97,1.11,1.93,2.13-1.07-1.06-1.84-1.83-2.55-2.36-.69-.54-1.31-.87-1.86-1.23-.56-.35-1.1-.69-1.7-1.21-.61-.51-1.26-1.23-2-2.34,1.68,1.79,0-1.09,0-1.45-.78-.84-2.17-2.7-2.83-3.41l-.05,1.09c-1.04-1.17-1.34-2.24-1.74-3.28-.2-.53-.42-1.05-.73-1.62-.3-.58-.7-1.19-1.29-1.88-.58-.2,1.45,2.8,1.07,2.27-1.41-2.01-2.12-3.53-2.57-5.09-.24-.77-.44-1.54-.67-2.37-.2-.84-.43-1.74-.75-2.77-.27-.15-.68.09-1.57-1.18.55.28.32-.82,1.24.62-.4-1.39-1.28-2.86-1.89-3.99.42,1.44.19,1.21-.23.56-.41-.65-.91-1.75-1.12-1.98-.44-1.51.54.33.95,1.19-.3-1.23-.21-2.81-1.01-3.3.2-.09.74.66,1.34,1.68.3.51.61,1.09.9,1.67.32.57.61,1.15.85,1.67l-.5-1.46c.59.91.6,1.11,1.1,2.55-.24-1.51.15-1.5.56-1.29.01.2-.13-.06-.12.13.34,1.17.8,1.99.91,1.64.94.78-.31-1.69-.33-2.55-.25-.56-.54-1.11-.76-1.67l-1.88-2.68c-.61-.91-1.17-1.85-1.77-2.79-.5-1.28-.62-2.27-.72-3.18-.08-.91-.12-1.74-.14-2.77l-.58-.46c-.41-2.35-.5-4.58.3-3.17-.14.11-.09.41-.02.92.08.06.14.16.21.3.04.04.07.07.1.1-.55-2.46-.8-4.02-.85-4.16,1.24,4.15.91.1,1.87.71-.3-1.38-.47-2.79-.68-4.19-.08,2.59-.42.08-.61-.83.47-.28-.13-3.43-.05-4.94l.1.11c.21-1.38.19-3.8.23-5.53-.16.07-.83-2.22-1.13-3.36-.54,2.98-.51,1.19-.85,1.39.05-.31.14-.87.08-.94-.08-.45-.26.57-.43.64,0,1.63-.09,3.28-.02,4.68.09,1.41.25,2.57.58,3.23.33-.98-.26-1.69-.02-2.79.21.8.28,1.71.29,2.76.02,1.04.04,2.22.07,3.54l-.39.89.42,2.66c-.29-1.1-.71-.39-.94-3.22-.42.38.27,2.81.27,4.55.2.28.43.55.64.82-.35-.31.06,3.39-.68.82-.36-1.41-.58-2.84-.84-4.27l-.28,1.23c-.12-1.22-.28-2.45-.32-3.67l.3.86c-.51-5.9.96-1.74.44-7.66-.52-1.88-.53-3.92.14-7.51-.19,2.64.43.33.68,1.36.58-2.61.26-3.57.24-4.99.46-.61.83-1.03.36,1.31.67.42.41-3.11,1.24-3.16.82-3.83.77-5.47.77-7.32.11-1.8.3-3.83,2.55-7.96l.13.44c2.03-5.57,4.02-8.41,6.78-13.13.99-1.07,2.07-2.06,3.09-3.08-.47.85-1.47,3.26-.47,2.5-.93.6-1.6,1.44-2.26,2.31-.66.87-1.28,1.78-2.01,2.65.06.3.64-.41.95-.69-.67,1.16-1.33,1.56-2.07,3.19.16-.01,1.31-1.58.66-.28-.53.62-1.02,1.27-1.54,1.92-.64,1.49-.55,1.97-.53,2.5.02.52-.04,1.08-.92,2.75-.11-.8-.08-2.37.44-3.76-.4.78-.23.21-.04-.36.2-.57.39-1.17-.09-.52-.29,1.26-.61,2.14-1.04,3.08-.44.94-.89,1.99-1.31,3.62.06-.4-.02-.54.25-1.32-.69,1.47-1.36,2.95-1.94,4.47.37-.51.14.47-.09,1.55-.22,1.08-.38,2.27-.06,2.12.39-1.22.67-2.04.91-2.67.21-.64.36-1.09.51-1.56.28-.95.69-1.96,1.91-4.62-.48,1.59-.79,3.75-.58,4.86-.04.04-.08.11-.15.28.23,1.01.66.21,1.55.54.07-1.34.47-2.34.89-3.4.4-1.06.93-2.13,1.39-3.6-.22-.74-1.38,1.33-1.8,2.81.21-.89.5-1.75.76-2.62v.58c.97-2.08,2.06-4.09,3.2-6.07-.62,1.14-.52,1.7-.63,2.39.43-.77.92-1.49,1.53-2.21-.53-.07-.78-.35-.34-1.09,2.29-3.78,4.13-5.49,5.52-6.46.09-.14.19-.3.27-.43-.88.27,1.14-3.02,1.61-4.42.36.39,1.73-1.52,2.76-2.3,0-.91-1.22-.81-2.62.07-1.57,2.66-.68,1.65-.97,3.25l-1.27,2.05-1.18,2.1.23-1.15c-1.6,1.81-2.28,4.12-2.72,3.63.17-.64.57-1.39,1.03-2.1.45-.71.91-1.42,1.11-2.06l-1.12,1.17c1.16-2.66,1.27-.87,3.04-3.81-1.2.66.15-.27.8-1.64-.52.34-1.42,1.56-2.21,2.52-.79.96-1.39,1.71-1.47,1.01.34-.87,1.52-1.9,2.65-3.02,1.13-1.13,2.36-2.24,2.79-3.45v.16c2.47-2.5,2.98-3.72,3.73-4.87,1.27-.85,2.56-2.52,3.79-3.61l.14.23c.55-.54,1.14-1.03,1.72-1.54-.58,1.03-2.1,1.69-3.55,3.05l.51.21c-1.06.51-1.68,1.25-2.19,2-.49.76-.88,1.53-1.32,2.32.73-1.07,2.07-2.26,3.17-3.36,1.15-1.05,2.07-1.98,1.99-2.55.5-.23,1.03-.42,1.54-.61l.48-.61c1.16-.42.55.75-1.11,2.26-.38.16-.56.24-.54.09-.33.43-.61.87-1.05,1.4-.46.52-1.05,1.16-2,1.99l.8-1.12c-2.35,2.11-4.16,4.35-4.54,5.45,3.19-3.2,6.5-6.15,9.81-8.77.28-1.66,1.14-3.05,1.08-4.26,2.24-1.91,5.62-4.1,8.02-5.02l-.1.29c1.12-.53,2.13-1.06,2.92-1.61,1.29-.35-.55.89.32.61,1.17-.76,2.41-1.4,3.63-2.09-.02.27-.83.76-1.82,1.28-.99.51-2.12,1.14-2.85,1.52.26-.18.79-.54.58-.5-1.85.67-4.54,3.19-5.61,3.05-.74.61,1.36-1.46-1.36.24-1.96.94-2.19,1.86-2.25,2.15.1.2,2.99-1.55,2.18-.64,1.37-.91,1.73-1.59,3.71-2.41-1.43.81-2.99,2.49-3.95,2.61-2.41,2.21-1.26,2.99-.02,2.17-.55-.15,4.61-3.54.82-1.71,1.3-1.46,4.27-3.26,6.35-4.64l-.05.14c.9-.49,1.78-1.04,2.71-1.49-.34.29-1.12.82-1.03,1.07,1.16-.86,2.38-1.62,3.59-2.44-1.01.72-.63.64.13.35.76-.28,1.94-.7,2.48-.81.28-.54,1.74-1.44.16-1.06-1.8.39-.91.59-2.43,1.23l1.94-1.45.21-.02c.38-.33.75-.68,1.14-1,3.06-1-.92,1.59,2.8-.21l-.73-.5c1.14-.38,2.39-.67,3.66-.93.64-.13,1.28-.28,1.92-.39.64-.1,1.28-.2,1.91-.3.63-.1,1.24-.21,1.84-.3.6-.08,1.18-.16,1.73-.24,1.11-.15,2.09-.38,2.91-.55-.86.52-1.15,1.22.15,1.43-.72,0-1.77.21-2.9.4-.56.1-1.15.21-1.71.33-.56.14-1.1.28-1.6.41-.2-.02.37-.36,1.28-.75.91-.38,2.17-.72,3.28-.85-.63-.48-2-.07-3.24.36-1.24.46-2.36.9-2.63.36-5.66,1.07-3.8,2.17-8.58,3.06.12.52-1.19.74-1.25,1.27,1.59.21,6.01-2.18,9.11-2.68-.28.12-.85.36-.94.49,2.17-.45,3.04-.69,4.5-1.25l-.2-.02c2.55-1.03,1.72.08,3.31.02.59-.22,2.78-.34,2.38-.68.97.05,1.93.08,2.9.15l-.2-.58c1.61-.16,1.99.2,3.43-.27l.04-.53c-1.35.05-2.7.06-4.05.15,2.03-.37.52-.56,2.78-.85-2.49.78,1.81.13,2.08.65l1.65-.34-.42.15c1.31.25,1.55-.27,3.07-.17-1.79-.31-3-.63-5.28-.16,1.65-.38,4.99-.8,5.81-.75,1.78-.18,3,.24,4.64.45-1.59-.01-1.33.41-1.47.72-.14.31-.66.54-3.78.28.12-.1.62-.06.82,0-.83-.74-3.76.06-5.09.36.36.38-1.03.51,1.35.66-.8-.2,1.99-.99,4.27-.55l-.42.82c1.09.08,2.18.08,3.27.22l-.31.02c1.19.63,3.49.12,5.69.76,1.66-.18,7.76,1.32,5.29-.08,1.88.96,3.78.66,5.96,1.21-.87-.35-1.72-.75-2.61-1.05,3.36.26,2.32.4,5.17.25.19.3.7.67.11.72,4.29,1.35,10.02,4.14,12.62,4.85,1.42.72,2.06,1.44,2.9,2.14.84.69,1.79,1.47,3.75,2.5.42.2.38-.06.52-.14.14-.09.48-.01,1.6.95.12.16-2.65-1.13.04.7.56.21,1.11.53,1.66.91.53.4,1.06.88,1.6,1.36,1.1.95,2.18,2.04,3.5,2.83,1.07,1.2,3.08,3.09,2.32,3.04-1.69-1.86-4.49-4.07-5.05-4.23.47-.02-1.22-1.33.39-.37-2.77-2.64-2.09-1.33-4.71-3.51-.31.04,1.11,1.45,1.79,1.75-.38.52-5.63-3.57-3.64-1.18,2.87,2.09,4.6,1.63,6.57,4.18-1.21-.49-2.54-1.96-4.23-2.34.63.57,1.22,1.18,1.83,1.77.58.25,1.18.49,1.75.77h-.15c2.98,3.41,3.6,2.19,6.75,4.82-1.3-2.05,1.24-.44.19-1.94,2,1.93,3.32,3.49,2.79,3.98-1.93-1.73-2.14-1.61-2.29-1.5-.17.13-.29.26-2.18-1.16.36.72-1.46-.08.39,1.95,2.5,1.91-.23-1.07,2.08,1.02.08.17.17.36.02.34,1.21.84,1,1.34,2.43,2.4l-.38-.22c1.05,1.9,1.83,1.53,2.62,3.25-.03-.9,1.08.74,1.99,1.5-.92-1.65-.94-2.93-3.36-5.81-.61-.08-.6.27-1.75-.76l1.62,1.8c-.39-.35-.73-.59-1.11-.89l-1.36-1.89c2.15,2.03,1.59.73,2.74,1.41,1.62,2.2,1.5,1.69,2.47,3.11-.52.19,2.29,4.83,3.55,7.67-.23-.42-.58-.93-.75-1.22-1.53-1.68.42,1.56.3,1.72l1.07,1.26c-.19-.25-.52-.54-.25.1,1.2,1.85,1.64,1.47,2.75,3.39-.22.29-1.51-1.14-1.04.16-.02.27-.03.83.16,1.61.17.8.5,1.84,1.23,3.09.21.13.56.8.92,1.59-.06-.11-.13-.24-.17-.28l.37,1.91c-1.11-1.31-.96-3.17-2.17-4.42l-.54.09c-.49-1.16-1.5-2.57-2.09-3.14.39.87.67,1.38.98,1.9.29.53.6,1.08,1.1,2.03-.18.41-1.03-.85-1.15-1.03l.4.16c-.3-1.26-.89-2.04-1.5-2.87-.6-.84-1.32-1.7-2.07-3.08-.22-.42-.04-.19.1-.15-1.71-1.93-2.51-4.4-4.51-6.01l.69.49c-.29-.31-.65-.69-1.07-1.12-.43-.42-.93-.88-1.46-1.38-1.04-1.01-2.31-2.06-3.56-3.11l-.17.12c.15.35-.64-.56-1.04-1.08h0c-.64-.5-1.28-.98-1.87-1.45-.61-.44-1.19-.85-1.71-1.22.2.37.5.8.91,1.23.54.16,2.4,2.44,2.53,1.77.7,1.2,2.46,2.57,2.95,3.46-.45-.81-.14-.66.33-.28.46.38,1.08.99,1.3,1.02.05.35.48.88.83,1.34.33.47.58.86.32.9.11.37-.26-.93-.98-1.36-.76-.62-.3.13.13.82.41.71.76,1.38-.09.54,2.06,2.22,4.08,5.65,5.95,8.17l-.71-1.61c.68,1.21,2.24,4.12,2.15,4.43-.53-.89-1.04-1.98-1.77-3.09-.45.17,1.45,2.81,1.24,3.08.84,1,1.59,2.06,2.4,3.11l-.67-1.55c.75.83,1.8,4.24,2.53,6.74-.58-.59-.88-1.52-1.27-2.59-.37-1.07-.73-2.33-1.45-3.51-1.06-1.69-.13,1.4-1.06-.23.04.51.57,1.6.97,2.08l.15.73c-.58-.66-1.28-1.81-1.96-3.07-.69-1.26-1.53-2.55-2.32-3.51.16.16.31.29.41.31-.69-1.76-1.63-3.45-2.8-4.88.35.93.68,1.17,1.03,1.61-.09.13-1.09-1.28-1.59-1.73.75,1.53-.16.48.33,1.43-.74-.83-1.13-1.63-1.86-2.76-.2-.71.61.27.8-.02-.98-1-.66-2.02-2.23-3.41,1.56,2.21-1-.14-1.74-.72l.26.37c-.81-.44-1.28-.97-1.4-1.64.86.71,1.4,1.64,1.51,1.15-.45-.57-.94-1.11-1.57-1.65l.7.39c-.83-.88-1.59-1.82-2.46-2.66-.65-.18-1.65-.54-2.35-.54-.37-.84-1.44-1.45-2.09-1.93l.37.16c-.45-.66-1.4-1.51-2.28-2.18-.87-.69-1.69-1.18-1.91-1.14-.18-.22.2-.13.76.08.56.21,1.29.57,1.86.78,1.13.45,1.61.34-1.59-2.14-2.42-1.89-2.07-.44-3.68-1.17,0,0,.14-.02.03-.17-1.04-.82-1.35-.62-2.33-1.08.58.55,1.49,1.23,1.87,1.33-.28.05-.83-.35-1.44-.81-.61-.45-1.31-.91-1.82-1.05,1.44.18-2.01-1.57-.99-1.29-1.04-.81-2.21-1.51-3.35-1.94-1.13-.43-2.16-.7-2.87-.79-1.29-1.44-2.85-1.21-5.39-2.57.4.18,1.19.37,1.73.67,1.72.15-2.69-1.34-.16-.83-.53-.13-.13.23.41.36.93.29,1.85.49,1.72.18-.66-.48-1.35-.88-2.04-1.31l.82.2c-1.06-.62-2.1-1.3-3.2-1.86-.13.06.16.29.3.4-3.91-1.7-8.73-2.56-12.38-3.18-.23.3-.91.42-1.85.44-.94.03-2.13-.11-3.4-.14-1.27-.06-2.61-.15-3.82-.09-1.21.04-2.28.1-3.02.36.78-.43,1.23-1.13.73-1.42.66-.05,2.05-.57,3.58-.42.24.22,2.09.63.87.79,4.19.16-.52-.65.75-1.08-4.72-.15-7.46.75-10.33,1.3l-.09-.16c-.73.17-1.45.3-2.17.5.9-.06,1.34.16,1.27.33-.07.19-.65.33-1.8.35l.27-.07c-.67-.08-1.67.06-2.76.25-1.08.24-2.23.54-3.25.69-.42.24-.84.5-1.25.75-1.99.41-2.29-.42-3.07-.72-1.57.42-2.77.89-3.79,1.5-1.03.59-1.93,1.15-2.9,1.78-.54.03-1.96.41-2.93.73-.98.3-1.56.42-.47-.32-2.54,1.53-1.13,2.98-5.96,4.37l.94-.95c-2.05,1.2-4.42,2.84-6.4,4.45-.5.39-.98.78-1.44,1.14-.45.37-.87.73-1.26,1.05-.78.64-1.46,1.11-1.92,1.41.25-1.07-1.08-.35-2.68.61-1.55,1.01-3.36,2.27-4.09,2.17.37.03-.82,1.42-.89,1.72-.39.18-.95.58-1.21,1.29.71-.63.74-.16.84.08.11.25.23.24,1.29-1.22-.32.94-.72,1.97-1.35,3.13-.66,1.13-1.46,2.46-2.68,3.97l-.39-.36,2.04-2.34c-.51-.01.55-1.21.85-1.82-1.02,1.04-1.53,1.49-1.8,1.65-.28.15-.34,0-.39-.16-.09-.3-.17-.57-1.99,1.83-.06.68.04.29-.75,1.64.41-.61.19-.93-.5.04l-.31,1.16c-.92.64-.6-.19-.15-.98.44-.81.93-1.63.15-1.07.98-2.19,3.45-5.49,2.45-5.33-2.65,2.9-1.22,3.5-3.79,6.61l-.47.2c-.61,1.31-.34,1.75-.52,2.54-.17-.03-.49.2-.97.97-.63,2.39-1.22,3.86-1.53,6.11.52-1.34.96-2.27,1.35-2.99.41-.71.79-1.21,1.15-1.72.73-1.02,1.51-2.02,2.95-4.62-.38.87-2.45,4.48-1.9,5.08l-.43-.31c-.74,1.78-1.37,3.58-2.55,5.65.11-.49.22-.97.36-1.44-.54,1.5-1.23,2.63-1.87,3.7-.57,1.1-1.09,2.15-1.1,3.47.33-.82.61-1.48.72-2.02-.41,1.59-1.09,3.51-1.73,5.16-.04,1.26-.13,2.5-.13,3.74-.25-.1-.78,2.15-.94.97-.25.62-.4,1.17-.5,1.67-.07.51-.09.96-.08,1.38.02.85.11,1.56.06,2.31-.44,1.29-.43.71-.4-.25.08-.95.22-2.27-.12-2.47-.21.91-.45,1.84-.57,2.76-.12.92-.22,1.83-.29,2.69-.08,1.72-.02,3.25.17,4.31.13-.75.27-1.11.39-1.07-.2.1-.21,1.6-.23,2.43l.33.58c-.27,1.38-.46,1.19-.69,0-.14,1.34.62,2.9.14,4.29-.22-1.13-.31-2.43-.28-3.58.04-1.16.09-2.18-.03-2.78.11,2.39-.2,3.58-.38,4.95-.1.69-.23,1.42-.23,2.35.02.94.07,2.09.33,3.59-.15.09-.6-.9-.46.27.47,2.7.79.62,1.28,1.41-.5-2.03-.35-3.03,0-4.25l.32.53c-.13.09-.06,1.39-.15,1.78l.61.27c-.63-.09-.89,2.04-.38,3.63.17-1.7.26-1.26.89-1.8.46,1.08.44,1.72.39,2.41-.02.68-.11,1.43.54,2.59-.27-.13-.82-2.29-.61-.37.33,1.56.76,1.24,1.15,2.24-.78-1.04-1.08-.65-1.99-1.81-.62-2.81-.21-1.13-.94-3.86l-.02,2.43c-.52-2.4-.91-1.66-1.14-1.83.21,4.28,1.36,2.99,1.82,5.65.64,1.18-.49-2.48.33-.59.49,2.46.45.48,1.41,3.12l-.36-.38c-.06.91.51,1.63.9,2.54.51.96,1.31-1.69,2.81,2.4-.22-.15-.33-.19-.39-.17-1.86-.82-3.72-1.75-5.57-2.77,1.36,4.52,3.32,9.62,5.79,14.55-.04.77-.71.02-1.34-.91-.61-.93-1.23-2.01-1.32-1.77-.35-.77-.64-1.57-.94-2.37.33.01,2.45,4.71,1.99,2.39-2.2-3.88-2.6-5.89-4.67-9.65-.42,1.56,2.02,5.22,2.63,7.98-.42-1.09-.94-1.94-1.41-2.78.45,1.23.98,2.48,1.5,3.79.6,1.27,1.16,2.61,1.85,3.94l.52.48c-.95-1.78-1.44-3.09-1.52-3.25.56,1.21,1.22,2.25,1.86,2.94.62.7,1.16,1.08,1.47.99l-.21-.42.64.72c.3.54.59,1.08.89,1.61Zm132.29-21.76c.02.17.06.31.13.42-.07-.12-.15-.03-.13-.42Zm-145.18-27.6c-.62,3.55-.93,7.18-1.02,10.65.3-1.57.66-3,.94-4.1.32-1.1.63-1.88.84-2.15.47-.53.43.95.37,6.03l.11.66c.04-.66.1-1.56.15-2.57.05-1,.02-2.11.08-3.19-.14-.88-.57-2.76-.8-4.45-.14-.85-.27-1.64-.37-2.22-.08-.58-.14-.94-.18-.93-.47.57-.22,1.54-.46,2.67l.34-.41Zm2.44-2.18c.48-1.93.13-1.53-.05-1.88-.09.7-.18,1.39-.28,2.08.11-.25.22-.36.33-.19Zm-.32-1.81c-.05.22-.09.41-.14.5l.14-.5Zm2.44,38.43c-.03-.08-.05-.11-.08-.19.14.46.27.91.41,1.39-.03-.19-.12-.55-.33-1.2Zm-.65-4.05l-.57-.33c.1.43.21.87.32,1.32.16-.21.28-.41.25-.98Zm-.99-12.88c-.61-.74-.83-3.45-1.48-3.58-.17-.17-.19.41-.2,1.06.04.72.08,1.49.12,2.31.1.02.18.17.3.43,0-.81.13-1.36.53-1.07-.67,2.14.8,1.76.85,3.97.53.63.13-2.48-.13-3.13Zm117.58-64.38c.02.08.1.33.23.65l-1.43-.73c-.53-.46-1-.94-1.46-1.4-.47-.45-.92-.89-1.38-1.31-.91-.85-1.91-1.53-3.19-1.88-.88-.82-1.22-1.49-1.59-2.08.5.31.96.61,1.31.91,3.35,1.43,3.92,2.3,4.34,3,.21.36.38.7.81,1.13.42.45,1.09.98,2.35,1.71Zm-28.6-15.38c.3.03.43-.05.43-.05-6.51-.41-11.65-.49-15.05-.69.32.22,1.23.48,2.23.73,1,.26,2.1.44,2.79.65-.44.11-.87.24-1.31.39l-.75-.47-2.21.31c.59.4,2.34.46,3.48.81.1-.07,3.91-.28,5-.34-.97-.32-1.95-.56-2.95-.8.8.21,4.79.73,6.38.99.04-.12-.58-.46-1.29-.65-.71-.19-1.49-.29-1.71-.04-.26-.44,2.9.12.98-.65,1.23-.02,2.76.36,4.2.74,1.43.41,2.74.96,3.57,1.28l.1.7c1.75.85,1.49-.33,3.56.77-2.73-.79.21.83-1.93.15.59.47-.2.64,1.91,1.34,2.03-.1,1.99,1.31,3.87,1.34.95.73-1.35-.04.69,1.01,1.3.32,1.93.43,2.31.39.37-.05.48-.26.7-.51-1.07-.66-1.8-.75-2.48-.83-.67-.07-1.28-.13-2.18-.61,1.36.22,2.75.43,4.14.71-.6-.49-1.12-.7-1.56-.87.78.28,1.48.42,2.11.51.36.05.69.1.99.15-.52-.27-1.03-.53-1.5-.78-.48-.23-.92-.45-1.31-.63-.77-.39-1.3-.71-1.41-.91l.42-.15c-.64-.63-2.02-.9-2.68-.93-1.97-.79-4.12-.97-4.43-1.52h.85c-1.24-.4-1.95-.56-2.73-.76-.79-.18-1.63-.48-3.23-.83Zm-76.75,25.99c.94-.27,1.83-.62,3.12-1.53,1.28-.93,2.87-2.49,5.42-5.05l-.36.45c.79-.5,1.44-1.11,2.08-1.74.65-.62,1.27-1.3,1.91-2,1.31-1.35,2.74-2.78,4.79-3.72-.76.8-1.11,1.17-1.45,1.61-.32.46-.63.99-1.24,2.09l1.59-1.65c-.15.85,1.51-.71,2.88-1.65l-.78,1.44c-.46.21-1.24.65-1.85,1.09-.61.45-1.09.85-1.01.89.2-.21-.61.14-1.67.73-1.02.64-2.31,1.52-3.03,2.33.48.19,3.8-2.92,2.78-.99,1.12-1.44,1.65-1.13,2.98-2.43-1.19,1.36.06.8-.75,1.89.76-.65,1.48-1.35,2.28-1.96.12.04-3.22,2.97-.93,1.92.75-.99,3.57-2.5,3.3-2.99l.15.09c1.94-1.11.41-1.17,2.91-2.38-.11-.25-.66-.14-1.46.45-.64.56-.57.91-1.94,1.93-.43.06,0-.24.37-.52.38-.27.7-.54,0-.51-.71.03-3.56,2.89-2.99,1.51l1.92-1.22c-.27-.49,1.14-1.37.87-1.69,1.08-.93,2.5-1.14,3.52-2.23.35-.59-.88-.63,1.35-1.57.51-.04,1.19-.24,1.95-.52.76-.3,1.61-.66,2.47-1.01,1.7-.75,3.43-1.51,4.37-1.92.51-.33,1.04-.65,1.58-.94-.27-.3-3.22,1.27-2.28.45l1.3-.58,1.32-.51-.14.26c.9-.25,1.74-.79,2.53-1.14-.74.61-2.7,1.14-2.15,1.53,1.29-.31,1.52-.22,2.66-.65-.24.11-.45.22-.39.29,2.62-.5,2.31-1.29,2.91-1.65,1.23-.65.52-.69-.46-.57-.98.13-2.26.35-2.17.03,1.27-.41,2.54-.85,3.84-1.17l1.94-.53c.65-.16,1.31-.29,1.96-.44-.65.3-1.29.59-.99.77,1.97-.09.12.41,2.81-.1-.16-.37.68-.6,1.8-.81.56-.11,1.19-.23,1.79-.34.61-.11,1.2-.21,1.68-.36.94.24,1.12.29-.86.45.27.48,2.9.04,3.85.09.54-.14,1.48-.23,2.07-.35-.8-.22-.47-.55,1.27-.78l.1-.1c-1.43-.05-3.26-.2-4.96-.18-1.7.04-3.27.13-4.13.52l.48-.3c-1.68,0-3.45.43-4.98.89-1.54.41-2.83.81-3.68.54.06-.39-.67.07-.74-.46-.77.31-1.54.64-2.28,1.01l.43-.37c-1.33.44-2.68.8-3.98,1.31l.07-.13c-.86.55-1.63,1.04-2.31,1.47-.66.47-1.24.89-1.76,1.27.08.22.22.23-.32.63-.57.34-1.01.54-1.42.7h0s0,0,0,0c-.94.35-1.69.33-2.88.72,1.16-.54,2.31-1.1,3.48-1.62.14-.47-.32-.76-2.17-.21.7-.33.88-.75-.02-.39-.06.14-2.23,1.28-1.24,1.18-1.63.86-3.88,1.75-6.25,2.99-1.2.59-2.37,1.34-3.57,2.1-1.16.8-2.28,1.7-3.3,2.68,1.5-1.37.77-.99.1-.63-.65.39-1.27.74.51-.65-1.48.65-1.89,1.25-2.3,1.83-.4.61-.79,1.22-2.01,2.24-.35,0,1.33-1.12,1.65-1.9-2.16,1.57-3.69,3.26-5.09,4.99-.73.84-1.39,1.74-2.11,2.63-.74.87-1.49,1.79-2.35,2.73l-.51-.15c-.6.76-1.22,1.65-1.85,2.58Zm-5.19,8.67c-.43.88-.9,1.75-1.32,2.67.05-.09.09-.16.15-.25l-.98,2.78c.99-1.52,1.99-2.3,1.09.02-.08-.28-.64.26-.35-.56-.53.67-1.22,1.82-1.64,2.74-.43.92-.61,1.58-.07,1.29.69-3.21,1.15-.3,1.73-2.79-.13,1.42-.87,2.54-1.18,3.78.14-1.37-.96-.08-1.86,1.73-.25.84-1.07,3.05-1.36,4.47.59-.35.44.91,1.29-1.26-.08.42-.2.95-.39,1.54-.16.6-.38,1.26-.7,1.94.09-.58.31-1.59.14-1.57-.66.8-.95,1.9-1.29,2.45-.12.48-.19.98-.28,1.46.07-.13.15-.24.23-.32l.02,1.69c.29-2.18.43-.94.68-.85-.5-.18-.38,1.35-.53,2.08l.91-1.45c.05.41-.2,1.05-.39,1.56-.16.51-.26.89.04.75.42-1.65.77-2.77.99-3.88.27-1.1.52-2.16.86-3.66l-.75,1.08c.31-1.73.72-2.17,1.1-2.66.42-.48.79-1.03,1.51-2.82.16-1.67,2.27-5.36,1.6-5.78,0,.54,1.72-1.85,2.05-3.19.06-.81.61-2.22,1.07-3.28.48-1.04.82-1.77.31-1.28-.7,1.02-1.17,2.64-2.06,3.27l1.06-2.14-1.13,1.16c.53-.63.16-.76-.53-.73Zm-13.16,53.22s0,.06,0,.1l-.02-.11h0Z" style="fill:#ffd220; stroke-width:0px;"/><path d="m766.95,88.28c.48.56,1.05,2.2,1.3,1.74-.19.1-.49-.62-.75-1.22-.29-.59-.54-1.07-.54-.52Z" style="fill:#ffd220; stroke-width:0px;"/><path d="m767.36,90.35c.14.08.26-.06.56.65l-.88-1.95.33,1.29Z" style="fill:#ffd220; stroke-width:0px;"/><path d="m765.41,93.37c.64.89,1.02,1.47,1.53,3.06-.79.91-1.15-2.49-2.31-2.87.45,1.43.94,2.3,1.46,3.1.49.81.94,1.57,1.33,2.76.02-.65-.19-2.24-.64-3.6-.45-1.37-.99-2.56-1.37-2.46Z" style="fill:#ffd220; stroke-width:0px;"/><path d="m763.69,92.59c.27.49.57.97.82,1.47v-.18s-.82-1.47-.82-1.47v.18Z" style="fill:#ffd220; stroke-width:0px;"/><path d="m748.64,56.82c.08-.36-1.05-.83-1.58-1.16.39.33.89.83,1.58,1.16Z" style="fill:#ffd220; stroke-width:0px;"/><path d="m755.24,173.67c3.26-3.49,6.2-7.27,8.78-11.28-2.28,3.42-4.49,6.52-8.78,11.28Z" style="fill:#ffd220; stroke-width:0px;"/><path d="m705.29,41.12c1.87.01,3.23.02,4.62-.02,1.37.06,2.77.08,4.67.42-1.2-.45-2.25-.61-3.17-.73-.93-.12-1.75-.12-2.54-.08-1.59.05-3.05.1-5.14-.36l1.56.78Z" style="fill:#ffd220; stroke-width:0px;"/><path d="m706.88,38.68c.56.64-3.02.44-2.5.95,2.57.05,1.25-.51,3.56-.17l-1.07-.77Z" style="fill:#ffd220; stroke-width:0px;"/><polygon points="720.64 52.05 719.57 52.02 720.39 52.17 720.64 52.05" style="fill:#ffd220; stroke-width:0px;"/><polygon points="689.42 39.21 689.82 39.02 687.89 39.07 689.42 39.21" style="fill:#ffd220; stroke-width:0px;"/><path d="m690.23,38.84c-.14.06-.27.11-.41.18.14-.07.27-.12.41-.18Z" style="fill:#ffd220; stroke-width:0px;"/><polygon points="719 52.88 720.36 53.48 721.15 53.45 719 52.88" style="fill:#ffd220; stroke-width:0px;"/><path d="m706.56,46.84l1.41-.02c-.28,0-2.15-.49-1.41.02Z" style="fill:#ffd220; stroke-width:0px;"/><polygon points="677.83 41.08 676.08 41.82 676.28 41.82 678.02 41.09 677.83 41.08" style="fill:#ffd220; stroke-width:0px;"/><path d="m695.7,48.08c.95.44-2.71.21-.76.56,1.71-.11,1.01-.34.76-.56Z" style="fill:#ffd220; stroke-width:0px;"/><path d="m675.07,48.54c-.22.07-.45.17-.66.3.26-.11.48-.21.66-.3Z" style="fill:#ffd220; stroke-width:0px;"/><path d="m675.07,48.54c.72-.25,1.48-.32,1.94-.57-.97.04-1.27.26-1.94.57Z" style="fill:#ffd220; stroke-width:0px;"/><path d="m667.08,51.83l.64-.25c-.54.5-.25.33.24-.1.65-.31.56-.43.59-.56.11-.11.22-.23.33-.35-.18.15-.34.29-.48.4-1.03.46-1.64.76-1.33.86Z" style="fill:#ffd220; stroke-width:0px;"/><path d="m635.79,66.21c1.96-2,2.5-2.48,2.67-2.13,1.89-1.84,1.16-1.97,2.16-3.23-1.01,1.11-1.66,1.75-2.34,2.45-.68.71-1.36,1.51-2.49,2.91Z" style="fill:#ffd220; stroke-width:0px;"/><path d="m640.62,60.86c.23-.25.46-.47.73-.75-.32.3-.55.52-.73.75Z" style="fill:#ffd220; stroke-width:0px;"/><path d="m677.67,51.99c-.42.32-.82.67-1.23,1l.49-.25c.25-.25.49-.51.74-.75Z" style="fill:#ffd220; stroke-width:0px;"/><path d="m633.06,69.36c.34-.4.84-1.06,1.19-1.31-.2-.34-1.53,1.7-1.19,1.31Z" style="fill:#ffd220; stroke-width:0px;"/><path d="m645.22,66.18c.32-.05,1.41-1.27,1.95-1.66-.71.63-1.78.67-1.95,1.66Z" style="fill:#ffd220; stroke-width:0px;"/><path d="m629.85,76.8c.29-.42.92-.95,1-.51.25-.71.24-1.91-1,.51Z" style="fill:#ffd220; stroke-width:0px;"/><path d="m642.01,69.58l.33-.19c.33-.49.64-1,.98-1.47-.46.54-.88,1.11-1.32,1.67Z" style="fill:#ffd220; stroke-width:0px;"/><path d="m650.06,68.89c1.03-1.59-2.86,1.28-.81-1.19-3.26,2.6.63.19-1.53,2.32,1.32-1.2,2.35-1.38,2.34-1.13Z" style="fill:#ffd220; stroke-width:0px;"/><path d="m647.72,70.02c-.2.17-.4.36-.61.58.24-.23.44-.42.61-.58Z" style="fill:#ffd220; stroke-width:0px;"/><path d="m631.07,90.69c.06-.28.08-.47.1-.66-.05.22-.08.43-.1.66Z" style="fill:#ffd220; stroke-width:0px;"/><path d="m641.83,77.68c.34-.89.73-1.75,1.14-2.61-.87,1.69-3.46,5.54-2.73,5.66.88-1.21,1.83-2.73,2.02-3.51l-.43.46Z" style="fill:#ffd220; stroke-width:0px;"/><path d="m618.12,104.72v-1.42s-.39,1.71-.39,1.71c.18-.48.5.49.39-.29Z" style="fill:#ffd220; stroke-width:0px;"/><path d="m617.65,105.34l.07-.33c-.03.07-.05.18-.07.33Z" style="fill:#ffd220; stroke-width:0px;"/><path d="m633.04,85.59c.47-.81.79-1.49,1.08-2.3-.28.25-1.44,2.29-1.08,2.3Z" style="fill:#ffd220; stroke-width:0px;"/><path d="m618.04,114.52c-.03-.76.02-1.52.03-2.28-.04.83-.11,1.65-.1,2.48l.07-.2Z" style="fill:#ffd220; stroke-width:0px;"/><path d="m617.17,125.22l-.09.41c.12.63.28,1.25.44,1.88l.07-.41c-.17-.62-.29-1.24-.42-1.87Z" style="fill:#ffd220; stroke-width:0px;"/><path d="m629.93,112.24c.14-1.31-.27-2.39-.44-2.07-.12.85-.15,1.71-.21,2.57.57-.61.01-.72.3-2.19.08.56.23,1.13.35,1.68Z" style="fill:#ffd220; stroke-width:0px;"/><path d="m659.68,188.58c-.74-.04-3.51-1.83-3.47-2.22.44.13,2.05.87,1.19.15-.9-.17-1.75-.43-2.64-.65-2.6-2.31,2.77.53,4.4,1.02-1.48-.9-2.5-1.38-3.53-1.91-1.04-.51-2.12-1.03-3.61-2.12.85.69,1.28,1.28,1.68,1.74-.12.29-.86-.11-1.81-.78-.96-.66-2.15-1.57-3.13-2.34,1.09,1.18.24.79-.82.25-.18-.12-.31-.17-.41-.21-.12-.06-.24-.12-.36-.18l.24.19c-.06.04-.06.14.05.36,1.75,1.2,2.78,2.52,3.91,3.32-.27-.8.68-.13,1.97.73,1.28.86,2.84,2,3.68,2.27l1.76.9.64.36c.08.16-.17.18-1.24-.22.89.35,3.68,1.8,3.56,1.4,1.05.56,2.15,1.04,3.24,1.53l1.64.73,1.67.66c.19.12.38.25.51.37.25.03.31,0,.3-.05,9.72,3.71,20.16,5.48,30.52,5.27-1.54,0-2.86-.3-4.43-.44,2.38-.57-2.57-.19-1.84-.8,1.06-.13,2.59-.06,3.51.12.34-.3-.95-.6-.79-.96-1.91-.22-3.01-.05-4.13.15-.56.1-1.12.21-1.77.26-.65.04-1.4-.02-2.33-.19.2-.34,1.39-.51-1.06-.78h.63c-1.98-.02-2.7-.44-3.25-.65-.55-.24-.93-.35-2.24-.1l.17-.5c-.91,0-2.21-.2-3.52-.45-1.31-.28-2.61-.65-3.57-.88l.14-.07c-5.4-1.16-3.01-.74-8.82-2.85.94.22,1.91.35,2.86.51-1.88-1-2.56-.6-3.93-1.3.14-.05-.02-.54,1.33-.04-2.4-.7-4.77-1.54-7.11-2.48-1.75-.55.13.52.27.86Z" style="fill:#ffd220; stroke-width:0px;"/><path d="m652.02,182.84c-.31-.25-.67-.52-1.11-.82.41.31.77.57,1.11.82Z" style="fill:#ffd220; stroke-width:0px;"/><path d="m701.76,199.08l-2.18.06c.68.02,1.38,0,2.18-.06Z" style="fill:#ffd220; stroke-width:0px;"/><path d="m642.93,176.88c.77,1.11-.98-.4-1.29-.42l1.73,1.64,1.8,1.56c.12-.17.62-.03.67-.24-.98-.83-1.98-1.64-2.9-2.54Z" style="fill:#ffd220; stroke-width:0px;"/><path d="m645.96,180.85c.21,0,.69.22,1.2.47-.69-.52-1.34-1.1-2-1.67-.09.13.04.42.8,1.19Z" style="fill:#ffd220; stroke-width:0px;"/><path d="m652.56,172.23l.57.47.97.56c-.52-.33-1.05-.66-1.54-1.03Z" style="fill:#ffd220; stroke-width:0px;"/><path d="m661.44,179.65c-.62-.69-2.13-1.44-2.66-1.66,1.65,1.03.85.71,2.66,1.66Z" style="fill:#ffd220; stroke-width:0px;"/><polygon points="661.19 175.6 662.78 176.41 662.68 176.28 661.19 175.6" style="fill:#ffd220; stroke-width:0px;"/><path d="m717.24,194.74c.33-.09.65-.17.97-.28-.44.13-.74.2-.97.28Z" style="fill:#ffd220; stroke-width:0px;"/><path d="m699.73,197.56c4.98.46-3.24.58-1.69,1.29l2.73-.32-.23.21,1.66-.08,1.66-.16c-.71-.3-1.21-.28-1.09-.66,4.41-.22,1.42.38,4.71.48,1.65-.22,3.29-.45,4.92-.8l-.38.18c.41-.08.59-.16.72-.24,5.49-1.08,10.86-2.74,16-4.94,1.36-.7.89-.71.34-.68-.56.01-1.21.03-.28-.63-3.21,1.37-8.24,2.58-8.33,3.3.09-.13.25-.38-.45-.27l-1.78,1.13,1.91-.34c-.45.28-1.19.61-2.07.91-.89.27-1.91.54-2.92.77-2.02.44-3.98.6-4.59.54,3.66-.89,1.68-1.14,6.83-1.93-.27-.13-1.27-.23-.16-.59-5.84,1.64-11.26,2.04-17.5,2.81Z" style="fill:#ffd220; stroke-width:0px;"/><path d="m754.18,173.95v.08c.06-.1.07-.15,0-.08Z" style="fill:#ffd220; stroke-width:0px;"/><path d="m752.65,175.29c-.55.85-1.09,1.72-1.69,2.53,1.17-1.01,2.23-2.14,3.34-3.2l-.11-.59c-.2.38-1.2,1.67-1.78,1.96l.24-.7Z" style="fill:#ffd220; stroke-width:0px;"/><path d="m748.6,180.39c1.73-1.69,1.2-2.08.06-1.43,1.47-1.63,1.29-.27,2.01-1.73-.32-.29-2.17,1.67-2.61,2.1l.54,1.05Z" style="fill:#ffd220; stroke-width:0px;"/><polygon points="733.56 189.69 734.05 189.16 732.55 189.86 733.56 189.69" style="fill:#ffd220; stroke-width:0px;"/><path d="m734.05,189.16l1.49-.69c-.19-.11-.37-.21-.66-.2l-.83.89Z" style="fill:#ffd220; stroke-width:0px;"/><path d="m739.39,186.49c.62-.33,1.28-.72,2.08-1.21l-2.08,1.21Z" style="fill:#ffd220; stroke-width:0px;"/><path d="m737.68,187.3l.09.04,1.62-.85c-.61.29-1.16.55-1.71.81Z" style="fill:#ffd220; stroke-width:0px;"/><path d="m735.55,188.47c.43.25.93.49,2.95-.81l-.73-.32c-.74.38-1.46.8-2.22,1.13Z" style="fill:#ffd220; stroke-width:0px;"/><polygon points="672.48 182.12 674.07 182.5 673.93 182.37 672.34 182 672.48 182.12" style="fill:#ffd220; stroke-width:0px;"/><path d="m681.3,185.37c.41.02.73.01,1.02,0-.42-.05-.77-.06-1.02,0Z" style="fill:#ffd220; stroke-width:0px;"/><path d="m688.58,183.92c1.79.64-2.63.22.77.84.26.4-1.44.76-3.03.24.19-.34,1.61.05.68-.49-1.14.22-1.5-.13-1.22.48-1.88.03-2.15.32-3.47.39,2.21.36,6.84,1.65,9.77,1.17,1.62-.54.73-1.51.82-2.46-.1-.13-1.14-.25-2.15-.36-1.02-.11-2.05-.1-2.16.2Z" style="fill:#ffd220; stroke-width:0px;"/><path d="m685.9,182.5c-.82-.19-1.08-.19-1.6-.24.07.36.93.15,1.6.24Z" style="fill:#ffd220; stroke-width:0px;"/><path d="m705.95,190.4c.16-.16,1.81-.54,1.42-.72-.84.15-1.67.36-2.51.46.6-.02.83.12,1.09.26Z" style="fill:#ffd220; stroke-width:0px;"/><path d="m703.75,190.29l1.11-.16c-.28,0-.62.05-1.11.16Z" style="fill:#ffd220; stroke-width:0px;"/><path d="m706.08,190.47s-.08-.04-.13-.07c-.03.03-.02.06.13.07Z" style="fill:#ffd220; stroke-width:0px;"/><path d="m745.21,182.89c.12.23,1.06-.61,1.5-1.08-.41.31-1.04.67-1.5,1.08Z" style="fill:#ffd220; stroke-width:0px;"/><path d="m772.39,145.32l.55-.97c-.24.33-.36.5-.55.97Z" style="fill:#ffd220; stroke-width:0px;"/><path d="m769.37,127.97s-.08-.11-.11-.22c.02.1.05.18.11.22Z" style="fill:#ffd220; stroke-width:0px;"/><path d="m769.26,127.75c-.13-.7.49-2.75.18-3.53l.09.1-.09-1.41c-.04.66-.1,1.67-.16,2.62-.09.94-.13,1.82-.02,2.22Z" style="fill:#ffd220; stroke-width:0px;"/><text transform="translate(708.81 285.72)" style="fill:#fc0; font-family:NHaasGroteskDSPro-55Rg, &apos;Neue Haas Grotesk Display Pro&apos;; font-size:15.81px;"><tspan x="0" y="0">Placeholder</tspan></text></svg>