<?xml version="1.0" encoding="UTF-8"?><svg id="Layer_2" xmlns="http://www.w3.org/2000/svg" xmlns:xlink="http://www.w3.org/1999/xlink" viewBox="0 0 583.33 583.33"><defs><radialGradient id="radial-gradient" cx="20.67" cy="16.84" fx="20.67" fy="16.84" r="784.4" gradientTransform="translate(29.86 -21.59) rotate(45) scale(1 2)" gradientUnits="userSpaceOnUse"><stop offset=".27" stop-color="#000" stop-opacity="0"/><stop offset=".41" stop-color="#020100" stop-opacity="0"/><stop offset=".48" stop-color="#0a0800" stop-opacity=".04"/><stop offset=".54" stop-color="#171200" stop-opacity=".09"/><stop offset=".59" stop-color="#2a2100" stop-opacity=".17"/><stop offset=".63" stop-color="#433500" stop-opacity=".26"/><stop offset=".67" stop-color="#614d00" stop-opacity=".38"/><stop offset=".7" stop-color="#856a00" stop-opacity=".52"/><stop offset=".74" stop-color="#af8c00" stop-opacity=".69"/><stop offset=".77" stop-color="#ddb100" stop-opacity=".87"/><stop offset=".79" stop-color="#fc0"/></radialGradient></defs><path d="m583.33,125c0-23.01-18.65-41.67-41.67-41.67,23.01,0,41.67-18.66,41.67-41.67S564.68,0,541.67,0s-41.67,18.65-41.67,41.67c0-23.01-18.65-41.67-41.67-41.67s-41.67,18.65-41.67,41.67c0-23.01-18.65-41.67-41.67-41.67s-41.67,18.65-41.67,41.67c0-23.01-18.65-41.67-41.67-41.67s-41.67,18.65-41.67,41.67c0-23.01-18.65-41.67-41.67-41.67s-41.67,18.65-41.67,41.67c0-23.01-18.65-41.67-41.67-41.67s-41.67,18.65-41.67,41.67C83.33,18.65,64.68,0,41.67,0S0,18.65,0,41.67s18.65,41.67,41.67,41.67c-23.01,0-41.67,18.66-41.67,41.67s18.65,41.67,41.67,41.67c-23.01,0-41.67,18.65-41.67,41.67s18.65,41.67,41.67,41.67c-23.01,0-41.67,18.65-41.67,41.67s18.65,41.67,41.67,41.67c-23.01,0-41.67,18.65-41.67,41.67s18.65,41.67,41.67,41.67c-23.01,0-41.67,18.65-41.67,41.67s18.65,41.67,41.67,41.67c-23.01,0-41.67,18.65-41.67,41.67s18.65,41.67,41.67,41.67,41.67-18.65,41.67-41.67c0,23.01,18.65,41.67,41.67,41.67s41.67-18.65,41.67-41.67c0,23.01,18.65,41.67,41.67,41.67s41.67-18.65,41.67-41.67c0,23.01,18.65,41.67,41.67,41.67s41.67-18.65,41.67-41.67c0,23.01,18.65,41.67,41.67,41.67s41.67-18.65,41.67-41.67c0,23.01,18.65,41.67,41.67,41.67s41.67-18.65,41.67-41.67c0,23.01,18.65,41.67,41.67,41.67s41.67-18.65,41.67-41.67-18.65-41.67-41.67-41.67c23.01,0,41.67-18.65,41.67-41.67s-18.65-41.67-41.67-41.67c23.01,0,41.67-18.65,41.67-41.67s-18.65-41.67-41.67-41.67c23.01,0,41.67-18.65,41.67-41.67s-18.65-41.67-41.67-41.67c23.01,0,41.67-18.65,41.67-41.67s-18.65-41.67-41.67-41.67c23.01,0,41.67-18.65,41.67-41.67Zm-80.33-83.33c0-21.32,17.35-38.67,38.67-38.67s38.67,17.35,38.67,38.67-17.35,38.67-38.67,38.67c-.04,0-.08,0-.12,0-1.47-20.62-17.93-37.07-38.54-38.54,0-.04,0-.08,0-.12Zm35.53,38.53c-18.82-1.52-33.87-16.57-35.39-35.39,18.82,1.52,33.87,16.57,35.39,35.39Zm-38.53-35.53s.08,0,.12,0c1.47,20.62,17.93,37.07,38.54,38.54,0,.04,0,.08,0,.12s0,.08,0,.12c-20.62,1.47-37.07,17.93-38.54,38.54-.04,0-.08,0-.12,0s-.08,0-.12,0c-1.47-20.62-17.93-37.07-38.54-38.54,0-.04,0-.08,0-.12s0-.08,0-.12c20.62-1.47,37.07-17.93,38.54-38.54.04,0,.08,0,.12,0Zm38.53,41.8c-1.52,18.82-16.57,33.87-35.39,35.39,1.52-18.82,16.57-33.87,35.39-35.39Zm-80.08,77.19s-.08,0-.12,0-.08,0-.12,0c-1.47-20.62-17.93-37.07-38.54-38.54,0-.04,0-.08,0-.12s0-.08,0-.12c20.62-1.47,37.07-17.93,38.54-38.54.04,0,.08,0,.12,0s.08,0,.12,0c1.47,20.62,17.93,37.07,38.54,38.54,0,.04,0,.08,0,.12s0,.08,0,.12c-20.62,1.47-37.07,17.93-38.54,38.54Zm38.41-35.53c-1.52,18.82-16.57,33.87-35.39,35.39,1.52-18.82,16.57-33.87,35.39-35.39Zm.14,80.08s0,.08,0,.12,0,.08,0,.12c-20.62,1.47-37.07,17.93-38.54,38.54-.04,0-.08,0-.12,0s-.08,0-.12,0c-1.47-20.62-17.93-37.07-38.54-38.54,0-.04,0-.08,0-.12s0-.08,0-.12c20.62-1.47,37.07-17.93,38.54-38.54.04,0,.08,0,.12,0s.08,0,.12,0c1.47,20.62,17.93,37.07,38.54,38.54Zm-35.53-38.41c18.82,1.52,33.87,16.57,35.39,35.39-18.82-1.52-33.87-16.57-35.39-35.39Zm35.39,41.67c-1.52,18.82-16.57,33.87-35.39,35.39,1.52-18.82,16.57-33.87,35.39-35.39Zm.14,80.08s0,.08,0,.12,0,.08,0,.12c-20.62,1.47-37.07,17.93-38.54,38.54-.04,0-.08,0-.12,0s-.08,0-.12,0c-1.47-20.62-17.93-37.07-38.54-38.54,0-.04,0-.08,0-.12s0-.08,0-.12c20.62-1.47,37.07-17.93,38.54-38.54.04,0,.08,0,.12,0s.08,0,.12,0c1.47,20.62,17.93,37.07,38.54,38.54Zm-35.53-38.41c18.82,1.52,33.87,16.57,35.39,35.39-18.82-1.52-33.87-16.57-35.39-35.39Zm35.39,41.67c-1.52,18.82-16.57,33.87-35.39,35.39,1.52-18.82,16.57-33.87,35.39-35.39Zm.14,80.08s0,.08,0,.12,0,.08,0,.12c-20.62,1.47-37.07,17.93-38.54,38.54-.04,0-.08,0-.12,0s-.08,0-.12,0c-1.47-20.62-17.93-37.07-38.54-38.54,0-.04,0-.08,0-.12s0-.08,0-.12c20.62-1.47,37.07-17.93,38.54-38.54.04,0,.08,0,.12,0s.08,0,.12,0c1.47,20.62,17.93,37.07,38.54,38.54Zm-35.53-38.41c18.82,1.52,33.87,16.57,35.39,35.39-18.82-1.52-33.87-16.57-35.39-35.39Zm35.39,41.67c-1.52,18.82-16.57,33.87-35.39,35.39,1.52-18.82,16.57-33.87,35.39-35.39Zm.14,80.08s0,.08,0,.12,0,.08,0,.12c-20.62,1.47-37.07,17.93-38.54,38.54-.04,0-.08,0-.12,0s-.08,0-.12,0c-1.47-20.62-17.93-37.07-38.54-38.54,0-.04,0-.08,0-.12s0-.08,0-.12c20.62-1.47,37.07-17.93,38.54-38.54.04,0,.08,0,.12,0s.08,0,.12,0c1.47,20.62,17.93,37.07,38.54,38.54Zm-35.53-38.41c18.82,1.52,33.87,16.57,35.39,35.39-18.82-1.52-33.87-16.57-35.39-35.39Zm35.39,41.67c-1.52,18.82-16.57,33.87-35.39,35.39,1.52-18.82,16.57-33.87,35.39-35.39Zm-41.67,35.39c-18.82-1.52-33.87-16.57-35.39-35.39,18.82,1.52,33.87,16.57,35.39,35.39Zm-80.08.14s-.08,0-.12,0-.08,0-.12,0c-1.47-20.62-17.93-37.07-38.54-38.54,0-.04,0-.08,0-.12s0-.08,0-.12c20.62-1.47,37.07-17.93,38.54-38.54.04,0,.08,0,.12,0s.08,0,.12,0c1.47,20.62,17.93,37.07,38.54,38.54,0,.04,0,.08,0,.12s0,.08,0,.12c-20.62,1.47-37.07,17.93-38.54,38.54Zm38.41-35.53c-1.52,18.82-16.57,33.87-35.39,35.39,1.52-18.82,16.57-33.87,35.39-35.39Zm-41.67,35.39c-18.82-1.52-33.87-16.57-35.39-35.39,18.82,1.52,33.87,16.57,35.39,35.39Zm-80.08.14s-.08,0-.12,0-.08,0-.12,0c-1.47-20.62-17.93-37.07-38.54-38.54,0-.04,0-.08,0-.12s0-.08,0-.12c20.62-1.47,37.07-17.93,38.54-38.54.04,0,.08,0,.12,0s.08,0,.12,0c1.47,20.62,17.93,37.07,38.54,38.54,0,.04,0,.08,0,.12s0,.08,0,.12c-20.62,1.47-37.07,17.93-38.54,38.54Zm38.41-35.53c-1.52,18.82-16.57,33.87-35.39,35.39,1.52-18.82,16.57-33.87,35.39-35.39Zm-41.67,35.39c-18.82-1.52-33.87-16.57-35.39-35.39,18.82,1.52,33.87,16.57,35.39,35.39Zm-80.08.14s-.08,0-.12,0-.08,0-.12,0c-1.47-20.62-17.93-37.07-38.54-38.54,0-.04,0-.08,0-.12s0-.08,0-.12c20.62-1.47,37.07-17.93,38.54-38.54.04,0,.08,0,.12,0s.08,0,.12,0c1.47,20.62,17.93,37.07,38.54,38.54,0,.04,0,.08,0,.12s0,.08,0,.12c-20.62,1.47-37.07,17.93-38.54,38.54Zm38.41-35.53c-1.52,18.82-16.57,33.87-35.39,35.39,1.52-18.82,16.57-33.87,35.39-35.39Zm-41.67,35.39c-18.82-1.52-33.87-16.57-35.39-35.39,18.82,1.52,33.87,16.57,35.39,35.39Zm-80.08.14s-.08,0-.12,0-.08,0-.12,0c-1.47-20.62-17.93-37.07-38.54-38.54,0-.04,0-.08,0-.12s0-.08,0-.12c20.62-1.47,37.07-17.93,38.54-38.54.04,0,.08,0,.12,0s.08,0,.12,0c1.47,20.62,17.93,37.07,38.54,38.54,0,.04,0,.08,0,.12s0,.08,0,.12c-20.62,1.47-37.07,17.93-38.54,38.54Zm38.41-35.53c-1.52,18.82-16.57,33.87-35.39,35.39,1.52-18.82,16.57-33.87,35.39-35.39Zm-41.67,35.39c-18.82-1.52-33.87-16.57-35.39-35.39,18.82,1.52,33.87,16.57,35.39,35.39Zm-35.39-41.67c1.52-18.82,16.57-33.87,35.39-35.39-1.52,18.82-16.57,33.87-35.39,35.39Zm-.14-80.08s0-.08,0-.12,0-.08,0-.12c20.62-1.47,37.07-17.93,38.54-38.54.04,0,.08,0,.12,0s.08,0,.12,0c1.47,20.62,17.93,37.07,38.54,38.54,0,.04,0,.08,0,.12s0,.08,0,.12c-20.62,1.47-37.07,17.93-38.54,38.54-.04,0-.08,0-.12,0s-.08,0-.12,0c-1.47-20.62-17.93-37.07-38.54-38.54Zm35.53,38.41c-18.82-1.52-33.87-16.57-35.39-35.39,18.82,1.52,33.87,16.57,35.39,35.39Zm-35.39-41.67c1.52-18.82,16.57-33.87,35.39-35.39-1.52,18.82-16.57,33.87-35.39,35.39Zm-.14-80.08s0-.08,0-.12,0-.08,0-.12c20.62-1.47,37.07-17.93,38.54-38.54.04,0,.08,0,.12,0s.08,0,.12,0c1.47,20.62,17.93,37.07,38.54,38.54,0,.04,0,.08,0,.12s0,.08,0,.12c-20.62,1.47-37.07,17.93-38.54,38.54-.04,0-.08,0-.12,0s-.08,0-.12,0c-1.47-20.62-17.93-37.07-38.54-38.54Zm35.53,38.41c-18.82-1.52-33.87-16.57-35.39-35.39,18.82,1.52,33.87,16.57,35.39,35.39Zm-35.39-41.67c1.52-18.82,16.57-33.87,35.39-35.39-1.52,18.82-16.57,33.87-35.39,35.39Zm-.14-80.08s0-.08,0-.12,0-.08,0-.12c20.62-1.47,37.07-17.93,38.54-38.54.04,0,.08,0,.12,0s.08,0,.12,0c1.47,20.62,17.93,37.07,38.54,38.54,0,.04,0,.08,0,.12s0,.08,0,.12c-20.62,1.47-37.07,17.93-38.54,38.54-.04,0-.08,0-.12,0s-.08,0-.12,0c-1.47-20.62-17.93-37.07-38.54-38.54Zm35.53,38.41c-18.82-1.52-33.87-16.57-35.39-35.39,18.82,1.52,33.87,16.57,35.39,35.39Zm-35.39-41.67c1.52-18.82,16.57-33.87,35.39-35.39-1.52,18.82-16.57,33.87-35.39,35.39Zm-.14-80.08s0-.08,0-.12,0-.08,0-.12c20.62-1.47,37.07-17.93,38.54-38.54.04,0,.08,0,.12,0s.08,0,.12,0c1.47,20.62,17.93,37.07,38.54,38.54,0,.04,0,.08,0,.12s0,.08,0,.12c-20.62,1.47-37.07,17.93-38.54,38.54-.04,0-.08,0-.12,0s-.08,0-.12,0c-1.47-20.62-17.93-37.07-38.54-38.54Zm35.53,38.41c-18.82-1.52-33.87-16.57-35.39-35.39,18.82,1.52,33.87,16.57,35.39,35.39Zm-35.39-41.67c1.52-18.82,16.57-33.87,35.39-35.39-1.52,18.82-16.57,33.87-35.39,35.39Zm41.67-35.39c18.82,1.52,33.87,16.57,35.39,35.39-18.82-1.52-33.87-16.57-35.39-35.39Zm80.08-.14s.08,0,.12,0,.08,0,.12,0c1.47,20.62,17.93,37.07,38.54,38.54,0,.04,0,.08,0,.12s0,.08,0,.12c-20.62,1.47-37.07,17.93-38.54,38.54-.04,0-.08,0-.12,0s-.08,0-.12,0c-1.47-20.62-17.93-37.07-38.54-38.54,0-.04,0-.08,0-.12s0-.08,0-.12c20.62-1.47,37.07-17.93,38.54-38.54Zm-38.41,35.53c1.52-18.82,16.57-33.87,35.39-35.39-1.52,18.82-16.57,33.87-35.39,35.39Zm41.67-35.39c18.82,1.52,33.87,16.57,35.39,35.39-18.82-1.52-33.87-16.57-35.39-35.39Zm80.08-.14s.08,0,.12,0,.08,0,.12,0c1.47,20.62,17.93,37.07,38.54,38.54,0,.04,0,.08,0,.12s0,.08,0,.12c-20.62,1.47-37.07,17.93-38.54,38.54-.04,0-.08,0-.12,0s-.08,0-.12,0c-1.47-20.62-17.93-37.07-38.54-38.54,0-.04,0-.08,0-.12s0-.08,0-.12c20.62-1.47,37.07-17.93,38.54-38.54Zm-38.41,35.53c1.52-18.82,16.57-33.87,35.39-35.39-1.52,18.82-16.57,33.87-35.39,35.39Zm41.67-35.39c18.82,1.52,33.87,16.57,35.39,35.39-18.82-1.52-33.87-16.57-35.39-35.39Zm80.08-.14s.08,0,.12,0,.08,0,.12,0c1.47,20.62,17.93,37.07,38.54,38.54,0,.04,0,.08,0,.12s0,.08,0,.12c-20.62,1.47-37.07,17.93-38.54,38.54-.04,0-.08,0-.12,0s-.08,0-.12,0c-1.47-20.62-17.93-37.07-38.54-38.54,0-.04,0-.08,0-.12s0-.08,0-.12c20.62-1.47,37.07-17.93,38.54-38.54Zm-38.41,35.53c1.52-18.82,16.57-33.87,35.39-35.39-1.52,18.82-16.57,33.87-35.39,35.39Zm41.67-35.39c18.82,1.52,33.87,16.57,35.39,35.39-18.82-1.52-33.87-16.57-35.39-35.39Zm77.19,80.08s0,.08,0,.12,0,.08,0,.12c-20.62,1.47-37.07,17.93-38.54,38.54-.04,0-.08,0-.12,0s-.08,0-.12,0c-1.47-20.62-17.93-37.07-38.54-38.54,0-.04,0-.08,0-.12s0-.08,0-.12c20.62-1.47,37.07-17.93,38.54-38.54.04,0,.08,0,.12,0s.08,0,.12,0c1.47,20.62,17.93,37.07,38.54,38.54Zm-35.53-38.41c18.82,1.52,33.87,16.57,35.39,35.39-18.82-1.52-33.87-16.57-35.39-35.39Zm35.39,41.67c-1.52,18.82-16.57,33.87-35.39,35.39,1.52-18.82,16.57-33.87,35.39-35.39Zm.14,80.08s0,.08,0,.12,0,.08,0,.12c-20.62,1.47-37.07,17.93-38.54,38.54-.04,0-.08,0-.12,0s-.08,0-.12,0c-1.47-20.62-17.93-37.07-38.54-38.54,0-.04,0-.08,0-.12s0-.08,0-.12c20.62-1.47,37.07-17.93,38.54-38.54.04,0,.08,0,.12,0s.08,0,.12,0c1.47,20.62,17.93,37.07,38.54,38.54Zm-35.53-38.41c18.82,1.52,33.87,16.57,35.39,35.39-18.82-1.52-33.87-16.57-35.39-35.39Zm35.39,41.67c-1.52,18.82-16.57,33.87-35.39,35.39,1.52-18.82,16.57-33.87,35.39-35.39Zm.14,80.08s0,.08,0,.12,0,.08,0,.12c-20.62,1.47-37.07,17.93-38.54,38.54-.04,0-.08,0-.12,0s-.08,0-.12,0c-1.47-20.62-17.93-37.07-38.54-38.54,0-.04,0-.08,0-.12s0-.08,0-.12c20.62-1.47,37.07-17.93,38.54-38.54.04,0,.08,0,.12,0s.08,0,.12,0c1.47,20.62,17.93,37.07,38.54,38.54Zm-35.53-38.41c18.82,1.52,33.87,16.57,35.39,35.39-18.82-1.52-33.87-16.57-35.39-35.39Zm35.39,41.67c-1.52,18.82-16.57,33.87-35.39,35.39,1.52-18.82,16.57-33.87,35.39-35.39Zm.14,80.08s0,.08,0,.12,0,.08,0,.12c-20.62,1.47-37.07,17.93-38.54,38.54-.04,0-.08,0-.12,0s-.08,0-.12,0c-1.47-20.62-17.93-37.07-38.54-38.54,0-.04,0-.08,0-.12s0-.08,0-.12c20.62-1.47,37.07-17.93,38.54-38.54.04,0,.08,0,.12,0s.08,0,.12,0c1.47,20.62,17.93,37.07,38.54,38.54Zm-35.53-38.41c18.82,1.52,33.87,16.57,35.39,35.39-18.82-1.52-33.87-16.57-35.39-35.39Zm35.39,41.67c-1.52,18.82-16.57,33.87-35.39,35.39,1.52-18.82,16.57-33.87,35.39-35.39Zm-41.67,35.39c-18.82-1.52-33.87-16.57-35.39-35.39,18.82,1.52,33.87,16.57,35.39,35.39Zm-80.08.14s-.08,0-.12,0-.08,0-.12,0c-1.47-20.62-17.93-37.07-38.54-38.54,0-.04,0-.08,0-.12s0-.08,0-.12c20.62-1.47,37.07-17.93,38.54-38.54.04,0,.08,0,.12,0s.08,0,.12,0c1.47,20.62,17.93,37.07,38.54,38.54,0,.04,0,.08,0,.12s0,.08,0,.12c-20.62,1.47-37.07,17.93-38.54,38.54Zm38.41-35.53c-1.52,18.82-16.57,33.87-35.39,35.39,1.52-18.82,16.57-33.87,35.39-35.39Zm-41.67,35.39c-18.82-1.52-33.87-16.57-35.39-35.39,18.82,1.52,33.87,16.57,35.39,35.39Zm-80.08.14s-.08,0-.12,0-.08,0-.12,0c-1.47-20.62-17.93-37.07-38.54-38.54,0-.04,0-.08,0-.12s0-.08,0-.12c20.62-1.47,37.07-17.93,38.54-38.54.04,0,.08,0,.12,0s.08,0,.12,0c1.47,20.62,17.93,37.07,38.54,38.54,0,.04,0,.08,0,.12s0,.08,0,.12c-20.62,1.47-37.07,17.93-38.54,38.54Zm38.41-35.53c-1.52,18.82-16.57,33.87-35.39,35.39,1.52-18.82,16.57-33.87,35.39-35.39Zm-41.67,35.39c-18.82-1.52-33.87-16.57-35.39-35.39,18.82,1.52,33.87,16.57,35.39,35.39Zm-80.08.14s-.08,0-.12,0-.08,0-.12,0c-1.47-20.62-17.93-37.07-38.54-38.54,0-.04,0-.08,0-.12s0-.08,0-.12c20.62-1.47,37.07-17.93,38.54-38.54.04,0,.08,0,.12,0s.08,0,.12,0c1.47,20.62,17.93,37.07,38.54,38.54,0,.04,0,.08,0,.12s0,.08,0,.12c-20.62,1.47-37.07,17.93-38.54,38.54Zm38.41-35.53c-1.52,18.82-16.57,33.87-35.39,35.39,1.52-18.82,16.57-33.87,35.39-35.39Zm-41.67,35.39c-18.82-1.52-33.87-16.57-35.39-35.39,18.82,1.52,33.87,16.57,35.39,35.39Zm-35.39-41.67c1.52-18.82,16.57-33.87,35.39-35.39-1.52,18.82-16.57,33.87-35.39,35.39Zm-.14-80.08s0-.08,0-.12,0-.08,0-.12c20.62-1.47,37.07-17.93,38.54-38.54.04,0,.08,0,.12,0s.08,0,.12,0c1.47,20.62,17.93,37.07,38.54,38.54,0,.04,0,.08,0,.12s0,.08,0,.12c-20.62,1.47-37.07,17.93-38.54,38.54-.04,0-.08,0-.12,0s-.08,0-.12,0c-1.47-20.62-17.93-37.07-38.54-38.54Zm35.53,38.41c-18.82-1.52-33.87-16.57-35.39-35.39,18.82,1.52,33.87,16.57,35.39,35.39Zm-35.39-41.67c1.52-18.82,16.57-33.87,35.39-35.39-1.52,18.82-16.57,33.87-35.39,35.39Zm-.14-80.08s0-.08,0-.12,0-.08,0-.12c20.62-1.47,37.07-17.93,38.54-38.54.04,0,.08,0,.12,0s.08,0,.12,0c1.47,20.62,17.93,37.07,38.54,38.54,0,.04,0,.08,0,.12s0,.08,0,.12c-20.62,1.47-37.07,17.93-38.54,38.54-.04,0-.08,0-.12,0s-.08,0-.12,0c-1.47-20.62-17.93-37.07-38.54-38.54Zm35.53,38.41c-18.82-1.52-33.87-16.57-35.39-35.39,18.82,1.52,33.87,16.57,35.39,35.39Zm-35.39-41.67c1.52-18.82,16.57-33.87,35.39-35.39-1.52,18.82-16.57,33.87-35.39,35.39Zm-.14-80.08s0-.08,0-.12,0-.08,0-.12c20.62-1.47,37.07-17.93,38.54-38.54.04,0,.08,0,.12,0s.08,0,.12,0c1.47,20.62,17.93,37.07,38.54,38.54,0,.04,0,.08,0,.12s0,.08,0,.12c-20.62,1.47-37.07,17.93-38.54,38.54-.04,0-.08,0-.12,0s-.08,0-.12,0c-1.47-20.62-17.93-37.07-38.54-38.54Zm35.53,38.41c-18.82-1.52-33.87-16.57-35.39-35.39,18.82,1.52,33.87,16.57,35.39,35.39Zm-35.39-41.67c1.52-18.82,16.57-33.87,35.39-35.39-1.52,18.82-16.57,33.87-35.39,35.39Zm41.67-35.39c18.82,1.52,33.87,16.57,35.39,35.39-18.82-1.52-33.87-16.57-35.39-35.39Zm80.08-.14s.08,0,.12,0,.08,0,.12,0c1.47,20.62,17.93,37.07,38.54,38.54,0,.04,0,.08,0,.12s0,.08,0,.12c-20.62,1.47-37.07,17.93-38.54,38.54-.04,0-.08,0-.12,0s-.08,0-.12,0c-1.47-20.62-17.93-37.07-38.54-38.54,0-.04,0-.08,0-.12s0-.08,0-.12c20.62-1.47,37.07-17.93,38.54-38.54Zm-38.41,35.53c1.52-18.82,16.57-33.87,35.39-35.39-1.52,18.82-16.57,33.87-35.39,35.39Zm41.67-35.39c18.82,1.52,33.87,16.57,35.39,35.39-18.82-1.52-33.87-16.57-35.39-35.39Zm80.08-.14s.08,0,.12,0,.08,0,.12,0c1.47,20.62,17.93,37.07,38.54,38.54,0,.04,0,.08,0,.12s0,.08,0,.12c-20.62,1.47-37.07,17.93-38.54,38.54-.04,0-.08,0-.12,0s-.08,0-.12,0c-1.47-20.62-17.93-37.07-38.54-38.54,0-.04,0-.08,0-.12s0-.08,0-.12c20.62-1.47,37.07-17.93,38.54-38.54Zm-38.41,35.53c1.52-18.82,16.57-33.87,35.39-35.39-1.52,18.82-16.57,33.87-35.39,35.39Zm41.67-35.39c18.82,1.52,33.87,16.57,35.39,35.39-18.82-1.52-33.87-16.57-35.39-35.39Zm77.19,80.08s0,.08,0,.12,0,.08,0,.12c-20.62,1.47-37.07,17.93-38.54,38.54-.04,0-.08,0-.12,0s-.08,0-.12,0c-1.47-20.62-17.93-37.07-38.54-38.54,0-.04,0-.08,0-.12s0-.08,0-.12c20.62-1.47,37.07-17.93,38.54-38.54.04,0,.08,0,.12,0s.08,0,.12,0c1.47,20.62,17.93,37.07,38.54,38.54Zm-35.53-38.41c18.82,1.52,33.87,16.57,35.39,35.39-18.82-1.52-33.87-16.57-35.39-35.39Zm35.39,41.67c-1.52,18.82-16.57,33.87-35.39,35.39,1.52-18.82,16.57-33.87,35.39-35.39Zm.14,80.08s0,.08,0,.12,0,.08,0,.12c-20.62,1.47-37.07,17.93-38.54,38.54-.04,0-.08,0-.12,0s-.08,0-.12,0c-1.47-20.62-17.93-37.07-38.54-38.54,0-.04,0-.08,0-.12s0-.08,0-.12c20.62-1.47,37.07-17.93,38.54-38.54.04,0,.08,0,.12,0s.08,0,.12,0c1.47,20.62,17.93,37.07,38.54,38.54Zm-35.53-38.41c18.82,1.52,33.87,16.57,35.39,35.39-18.82-1.52-33.87-16.57-35.39-35.39Zm35.39,41.67c-1.52,18.82-16.57,33.87-35.39,35.39,1.52-18.82,16.57-33.87,35.39-35.39Zm.14,80.08s0,.08,0,.12,0,.08,0,.12c-20.62,1.47-37.07,17.93-38.54,38.54-.04,0-.08,0-.12,0s-.08,0-.12,0c-1.47-20.62-17.93-37.07-38.54-38.54,0-.04,0-.08,0-.12s0-.08,0-.12c20.62-1.47,37.07-17.93,38.54-38.54.04,0,.08,0,.12,0s.08,0,.12,0c1.47,20.62,17.93,37.07,38.54,38.54Zm-35.53-38.41c18.82,1.52,33.87,16.57,35.39,35.39-18.82-1.52-33.87-16.57-35.39-35.39Zm35.39,41.67c-1.52,18.82-16.57,33.87-35.39,35.39,1.52-18.82,16.57-33.87,35.39-35.39Zm-41.67,35.39c-18.82-1.52-33.87-16.57-35.39-35.39,18.82,1.52,33.87,16.57,35.39,35.39Zm-80.08.14s-.08,0-.12,0-.08,0-.12,0c-1.47-20.62-17.93-37.07-38.54-38.54,0-.04,0-.08,0-.12s0-.08,0-.12c20.62-1.47,37.07-17.93,38.54-38.54.04,0,.08,0,.12,0s.08,0,.12,0c1.47,20.62,17.93,37.07,38.54,38.54,0,.04,0,.08,0,.12s0,.08,0,.12c-20.62,1.47-37.07,17.93-38.54,38.54Zm38.41-35.53c-1.52,18.82-16.57,33.87-35.39,35.39,1.52-18.82,16.57-33.87,35.39-35.39Zm-41.67,35.39c-18.82-1.52-33.87-16.57-35.39-35.39,18.82,1.52,33.87,16.57,35.39,35.39Zm-80.08.14s-.08,0-.12,0-.08,0-.12,0c-1.47-20.62-17.93-37.07-38.54-38.54,0-.04,0-.08,0-.12s0-.08,0-.12c20.62-1.47,37.07-17.93,38.54-38.54.04,0,.08,0,.12,0s.08,0,.12,0c1.47,20.62,17.93,37.07,38.54,38.54,0,.04,0,.08,0,.12s0,.08,0,.12c-20.62,1.47-37.07,17.93-38.54,38.54Zm38.41-35.53c-1.52,18.82-16.57,33.87-35.39,35.39,1.52-18.82,16.57-33.87,35.39-35.39Zm-41.67,35.39c-18.82-1.52-33.87-16.57-35.39-35.39,18.82,1.52,33.87,16.57,35.39,35.39Zm-35.39-41.67c1.52-18.82,16.57-33.87,35.39-35.39-1.52,18.82-16.57,33.87-35.39,35.39Zm-.14-80.08s0-.08,0-.12,0-.08,0-.12c20.62-1.47,37.07-17.93,38.54-38.54.04,0,.08,0,.12,0s.08,0,.12,0c1.47,20.62,17.93,37.07,38.54,38.54,0,.04,0,.08,0,.12s0,.08,0,.12c-20.62,1.47-37.07,17.93-38.54,38.54-.04,0-.08,0-.12,0s-.08,0-.12,0c-1.47-20.62-17.93-37.07-38.54-38.54Zm35.53,38.41c-18.82-1.52-33.87-16.57-35.39-35.39,18.82,1.52,33.87,16.57,35.39,35.39Zm-35.39-41.67c1.52-18.82,16.57-33.87,35.39-35.39-1.52,18.82-16.57,33.87-35.39,35.39Zm-.14-80.08s0-.08,0-.12,0-.08,0-.12c20.62-1.47,37.07-17.93,38.54-38.54.04,0,.08,0,.12,0s.08,0,.12,0c1.47,20.62,17.93,37.07,38.54,38.54,0,.04,0,.08,0,.12s0,.08,0,.12c-20.62,1.47-37.07,17.93-38.54,38.54-.04,0-.08,0-.12,0s-.08,0-.12,0c-1.47-20.62-17.93-37.07-38.54-38.54Zm35.53,38.41c-18.82-1.52-33.87-16.57-35.39-35.39,18.82,1.52,33.87,16.57,35.39,35.39Zm-35.39-41.67c1.52-18.82,16.57-33.87,35.39-35.39-1.52,18.82-16.57,33.87-35.39,35.39Zm41.67-35.39c18.82,1.52,33.87,16.57,35.39,35.39-18.82-1.52-33.87-16.57-35.39-35.39Zm80.08-.14s.08,0,.12,0,.08,0,.12,0c1.47,20.62,17.93,37.07,38.54,38.54,0,.04,0,.08,0,.12s0,.08,0,.12c-20.62,1.47-37.07,17.93-38.54,38.54-.04,0-.08,0-.12,0s-.08,0-.12,0c-1.47-20.62-17.93-37.07-38.54-38.54,0-.04,0-.08,0-.12s0-.08,0-.12c20.62-1.47,37.07-17.93,38.54-38.54Zm-38.41,35.53c1.52-18.82,16.57-33.87,35.39-35.39-1.52,18.82-16.57,33.87-35.39,35.39Zm41.67-35.39c18.82,1.52,33.87,16.57,35.39,35.39-18.82-1.52-33.87-16.57-35.39-35.39Zm77.19,80.08s0,.08,0,.12,0,.08,0,.12c-20.62,1.47-37.07,17.93-38.54,38.54-.04,0-.08,0-.12,0s-.08,0-.12,0c-1.47-20.62-17.93-37.07-38.54-38.54,0-.04,0-.08,0-.12s0-.08,0-.12c20.62-1.47,37.07-17.93,38.54-38.54.04,0,.08,0,.12,0s.08,0,.12,0c1.47,20.62,17.93,37.07,38.54,38.54Zm-35.53-38.41c18.82,1.52,33.87,16.57,35.39,35.39-18.82-1.52-33.87-16.57-35.39-35.39Zm35.39,41.67c-1.52,18.82-16.57,33.87-35.39,35.39,1.52-18.82,16.57-33.87,35.39-35.39Zm.14,80.08s0,.08,0,.12,0,.08,0,.12c-20.62,1.47-37.07,17.93-38.54,38.54-.04,0-.08,0-.12,0s-.08,0-.12,0c-1.47-20.62-17.93-37.07-38.54-38.54,0-.04,0-.08,0-.12s0-.08,0-.12c20.62-1.47,37.07-17.93,38.54-38.54.04,0,.08,0,.12,0s.08,0,.12,0c1.47,20.62,17.93,37.07,38.54,38.54Zm-35.53-38.41c18.82,1.52,33.87,16.57,35.39,35.39-18.82-1.52-33.87-16.57-35.39-35.39Zm35.39,41.67c-1.52,18.82-16.57,33.87-35.39,35.39,1.52-18.82,16.57-33.87,35.39-35.39Zm-41.67,35.39c-18.82-1.52-33.87-16.57-35.39-35.39,18.82,1.52,33.87,16.57,35.39,35.39Zm-80.08.14s-.08,0-.12,0-.08,0-.12,0c-1.47-20.62-17.93-37.07-38.54-38.54,0-.04,0-.08,0-.12s0-.08,0-.12c20.62-1.47,37.07-17.93,38.54-38.54.04,0,.08,0,.12,0s.08,0,.12,0c1.47,20.62,17.93,37.07,38.54,38.54,0,.04,0,.08,0,.12s0,.08,0,.12c-20.62,1.47-37.07,17.93-38.54,38.54Zm38.41-35.53c-1.52,18.82-16.57,33.87-35.39,35.39,1.52-18.82,16.57-33.87,35.39-35.39Zm-41.67,35.39c-18.82-1.52-33.87-16.57-35.39-35.39,18.82,1.52,33.87,16.57,35.39,35.39Zm-35.39-41.67c1.52-18.82,16.57-33.87,35.39-35.39-1.52,18.82-16.57,33.87-35.39,35.39Zm-.14-80.08s0-.08,0-.12,0-.08,0-.12c20.62-1.47,37.07-17.93,38.54-38.54.04,0,.08,0,.12,0s.08,0,.12,0c1.47,20.62,17.93,37.07,38.54,38.54,0,.04,0,.08,0,.12s0,.08,0,.12c-20.62,1.47-37.07,17.93-38.54,38.54-.04,0-.08,0-.12,0s-.08,0-.12,0c-1.47-20.62-17.93-37.07-38.54-38.54Zm35.53,38.41c-18.82-1.52-33.87-16.57-35.39-35.39,18.82,1.52,33.87,16.57,35.39,35.39Zm-35.39-41.67c1.52-18.82,16.57-33.87,35.39-35.39-1.52,18.82-16.57,33.87-35.39,35.39Zm41.67-35.39c18.82,1.52,33.87,16.57,35.39,35.39-18.82-1.52-33.87-16.57-35.39-35.39Zm77.19,80.08s0,.08,0,.12,0,.08,0,.12c-20.62,1.47-37.07,17.93-38.54,38.54-.04,0-.08,0-.12,0s-.08,0-.12,0c-1.47-20.62-17.93-37.07-38.54-38.54,0-.04,0-.08,0-.12s0-.08,0-.12c20.62-1.47,37.07-17.93,38.54-38.54.04,0,.08,0,.12,0s.08,0,.12,0c1.47,20.62,17.93,37.07,38.54,38.54Zm-35.53-38.41c18.82,1.52,33.87,16.57,35.39,35.39-18.82-1.52-33.87-16.57-35.39-35.39Zm35.39,41.67c-1.52,18.82-16.57,33.87-35.39,35.39,1.52-18.82,16.57-33.87,35.39-35.39Zm-41.67,35.39c-18.82-1.52-33.87-16.57-35.39-35.39,18.82,1.52,33.87,16.57,35.39,35.39Zm-35.39-41.67c1.52-18.82,16.57-33.87,35.39-35.39-1.52,18.82-16.57,33.87-35.39,35.39Zm41.67-41.67c1.52-18.82,16.57-33.87,35.39-35.39-1.52,18.82-16.57,33.87-35.39,35.39Zm41.67-41.67c1.52-18.82,16.57-33.87,35.39-35.39-1.52,18.82-16.57,33.87-35.39,35.39Zm41.67-41.67c1.52-18.82,16.57-33.87,35.39-35.39-1.52,18.82-16.57,33.87-35.39,35.39Zm41.67-41.67c1.52-18.82,16.57-33.87,35.39-35.39-1.52,18.82-16.57,33.87-35.39,35.39Zm41.67-35.39c18.82,1.52,33.87,16.57,35.39,35.39-18.82-1.52-33.87-16.57-35.39-35.39Zm0-6.28c1.52-18.82,16.57-33.87,35.39-35.39-1.52,18.82-16.57,33.87-35.39,35.39Zm-41.8-38.53c0-21.32,17.35-38.67,38.67-38.67s38.67,17.35,38.67,38.67c0,.04,0,.08,0,.12-20.62,1.47-37.07,17.93-38.54,38.54-.04,0-.08,0-.12,0s-.08,0-.12,0c-1.47-20.62-17.93-37.07-38.54-38.54,0-.04,0-.08,0-.12Zm35.53,38.53c-18.82-1.52-33.87-16.57-35.39-35.39,18.82,1.52,33.87,16.57,35.39,35.39Zm-38.53-35.53s.08,0,.12,0c1.47,20.62,17.93,37.07,38.54,38.54,0,.04,0,.08,0,.12s0,.08,0,.12c-20.62,1.47-37.07,17.93-38.54,38.54-.04,0-.08,0-.12,0s-.08,0-.12,0c-1.47-20.62-17.93-37.07-38.54-38.54,0-.04,0-.08,0-.12s0-.08,0-.12c20.62-1.47,37.07-17.93,38.54-38.54.04,0,.08,0,.12,0Zm-38.53,35.53c1.52-18.82,16.57-33.87,35.39-35.39-1.52,18.82-16.57,33.87-35.39,35.39Zm-41.8-38.53c0-21.32,17.35-38.67,38.67-38.67s38.67,17.35,38.67,38.67c0,.04,0,.08,0,.12-20.62,1.47-37.07,17.93-38.54,38.54-.04,0-.08,0-.12,0s-.08,0-.12,0c-1.47-20.62-17.93-37.07-38.54-38.54,0-.04,0-.08,0-.12Zm35.53,38.53c-18.82-1.52-33.87-16.57-35.39-35.39,18.82,1.52,33.87,16.57,35.39,35.39Zm-38.53-35.53s.08,0,.12,0c1.47,20.62,17.93,37.07,38.54,38.54,0,.04,0,.08,0,.12s0,.08,0,.12c-20.62,1.47-37.07,17.93-38.54,38.54-.04,0-.08,0-.12,0s-.08,0-.12,0c-1.47-20.62-17.93-37.07-38.54-38.54,0-.04,0-.08,0-.12s0-.08,0-.12c20.62-1.47,37.07-17.93,38.54-38.54.04,0,.08,0,.12,0Zm-38.53,35.53c1.52-18.82,16.57-33.87,35.39-35.39-1.52,18.82-16.57,33.87-35.39,35.39Zm-41.8-38.53c0-21.32,17.35-38.67,38.67-38.67s38.67,17.35,38.67,38.67c0,.04,0,.08,0,.12-20.62,1.47-37.07,17.93-38.54,38.54-.04,0-.08,0-.12,0s-.08,0-.12,0c-1.47-20.62-17.93-37.07-38.54-38.54,0-.04,0-.08,0-.12Zm35.53,38.53c-18.82-1.52-33.87-16.57-35.39-35.39,18.82,1.52,33.87,16.57,35.39,35.39Zm-38.53-35.53s.08,0,.12,0c1.47,20.62,17.93,37.07,38.54,38.54,0,.04,0,.08,0,.12s0,.08,0,.12c-20.62,1.47-37.07,17.93-38.54,38.54-.04,0-.08,0-.12,0s-.08,0-.12,0c-1.47-20.62-17.93-37.07-38.54-38.54,0-.04,0-.08,0-.12s0-.08,0-.12c20.62-1.47,37.07-17.93,38.54-38.54.04,0,.08,0,.12,0Zm-38.53,35.53c1.52-18.82,16.57-33.87,35.39-35.39-1.52,18.82-16.57,33.87-35.39,35.39Zm-41.8-38.53c0-21.32,17.35-38.67,38.67-38.67s38.67,17.35,38.67,38.67c0,.04,0,.08,0,.12-20.62,1.47-37.07,17.93-38.54,38.54-.04,0-.08,0-.12,0s-.08,0-.12,0c-1.47-20.62-17.93-37.07-38.54-38.54,0-.04,0-.08,0-.12Zm35.53,38.53c-18.82-1.52-33.87-16.57-35.39-35.39,18.82,1.52,33.87,16.57,35.39,35.39Zm-38.53-35.53s.08,0,.12,0c1.47,20.62,17.93,37.07,38.54,38.54,0,.04,0,.08,0,.12s0,.08,0,.12c-20.62,1.47-37.07,17.93-38.54,38.54-.04,0-.08,0-.12,0s-.08,0-.12,0c-1.47-20.62-17.93-37.07-38.54-38.54,0-.04,0-.08,0-.12s0-.08,0-.12c20.62-1.47,37.07-17.93,38.54-38.54.04,0,.08,0,.12,0Zm-38.53,35.53c1.52-18.82,16.57-33.87,35.39-35.39-1.52,18.82-16.57,33.87-35.39,35.39Zm-41.8-38.53c0-21.32,17.35-38.67,38.67-38.67s38.67,17.35,38.67,38.67c0,.04,0,.08,0,.12-20.62,1.47-37.07,17.93-38.54,38.54-.04,0-.08,0-.12,0s-.08,0-.12,0c-1.47-20.62-17.93-37.07-38.54-38.54,0-.04,0-.08,0-.12Zm35.53,38.53c-18.82-1.52-33.87-16.57-35.39-35.39,18.82,1.52,33.87,16.57,35.39,35.39Zm-38.53-35.53s.08,0,.12,0c1.47,20.62,17.93,37.07,38.54,38.54,0,.04,0,.08,0,.12s0,.08,0,.12c-20.62,1.47-37.07,17.93-38.54,38.54-.04,0-.08,0-.12,0s-.08,0-.12,0c-1.47-20.62-17.93-37.07-38.54-38.54,0-.04,0-.08,0-.12s0-.08,0-.12c20.62-1.47,37.07-17.93,38.54-38.54.04,0,.08,0,.12,0Zm-3.14,77.2c-18.82-1.52-33.87-16.57-35.39-35.39,18.82,1.52,33.87,16.57,35.39,35.39Zm-35.39-41.67c1.52-18.82,16.57-33.87,35.39-35.39-1.52,18.82-16.57,33.87-35.39,35.39ZM3,41.67C3,20.35,20.35,3,41.67,3s38.67,17.35,38.67,38.67c0,.04,0,.08,0,.12-20.62,1.47-37.07,17.93-38.54,38.54-.04,0-.08,0-.12,0-21.32,0-38.67-17.35-38.67-38.67Zm38.67,122c-21.32,0-38.67-17.35-38.67-38.67s17.35-38.67,38.67-38.67c.04,0,.08,0,.12,0,1.47,20.62,17.93,37.07,38.54,38.54,0,.04,0,.08,0,.12s0,.08,0,.12c-20.62,1.47-37.07,17.93-38.54,38.54-.04,0-.08,0-.12,0Zm38.53-35.53c-1.52,18.82-16.57,33.87-35.39,35.39,1.52-18.82,16.57-33.87,35.39-35.39Zm-35.53,38.53s0-.08,0-.12c20.62-1.47,37.07-17.93,38.54-38.54.04,0,.08,0,.12,0s.08,0,.12,0c1.47,20.62,17.93,37.07,38.54,38.54,0,.04,0,.08,0,.12s0,.08,0,.12c-20.62,1.47-37.07,17.93-38.54,38.54-.04,0-.08,0-.12,0s-.08,0-.12,0c-1.47-20.62-17.93-37.07-38.54-38.54,0-.04,0-.08,0-.12Zm35.53,38.53c-18.82-1.52-33.87-16.57-35.39-35.39,18.82,1.52,33.87,16.57,35.39,35.39Zm-38.53,41.8c-21.32,0-38.67-17.35-38.67-38.67s17.35-38.67,38.67-38.67c.04,0,.08,0,.12,0,1.47,20.62,17.93,37.07,38.54,38.54,0,.04,0,.08,0,.12s0,.08,0,.12c-20.62,1.47-37.07,17.93-38.54,38.54-.04,0-.08,0-.12,0Zm38.53-35.53c-1.52,18.82-16.57,33.87-35.39,35.39,1.52-18.82,16.57-33.87,35.39-35.39Zm-35.53,38.53s0-.08,0-.12c20.62-1.47,37.07-17.93,38.54-38.54.04,0,.08,0,.12,0s.08,0,.12,0c1.47,20.62,17.93,37.07,38.54,38.54,0,.04,0,.08,0,.12s0,.08,0,.12c-20.62,1.47-37.07,17.93-38.54,38.54-.04,0-.08,0-.12,0s-.08,0-.12,0c-1.47-20.62-17.93-37.07-38.54-38.54,0-.04,0-.08,0-.12Zm35.53,38.53c-18.82-1.52-33.87-16.57-35.39-35.39,18.82,1.52,33.87,16.57,35.39,35.39Zm-38.53,41.8c-21.32,0-38.67-17.35-38.67-38.67s17.35-38.67,38.67-38.67c.04,0,.08,0,.12,0,1.47,20.62,17.93,37.07,38.54,38.54,0,.04,0,.08,0,.12s0,.08,0,.12c-20.62,1.47-37.07,17.93-38.54,38.54-.04,0-.08,0-.12,0Zm38.53-35.53c-1.52,18.82-16.57,33.87-35.39,35.39,1.52-18.82,16.57-33.87,35.39-35.39Zm-35.53,38.53s0-.08,0-.12c20.62-1.47,37.07-17.93,38.54-38.54.04,0,.08,0,.12,0s.08,0,.12,0c1.47,20.62,17.93,37.07,38.54,38.54,0,.04,0,.08,0,.12s0,.08,0,.12c-20.62,1.47-37.07,17.93-38.54,38.54-.04,0-.08,0-.12,0s-.08,0-.12,0c-1.47-20.62-17.93-37.07-38.54-38.54,0-.04,0-.08,0-.12Zm35.53,38.53c-18.82-1.52-33.87-16.57-35.39-35.39,18.82,1.52,33.87,16.57,35.39,35.39Zm-38.53,41.8c-21.32,0-38.67-17.35-38.67-38.67s17.35-38.67,38.67-38.67c.04,0,.08,0,.12,0,1.47,20.62,17.93,37.07,38.54,38.54,0,.04,0,.08,0,.12s0,.08,0,.12c-20.62,1.47-37.07,17.93-38.54,38.54-.04,0-.08,0-.12,0Zm38.53-35.53c-1.52,18.82-16.57,33.87-35.39,35.39,1.52-18.82,16.57-33.87,35.39-35.39Zm-35.53,38.53s0-.08,0-.12c20.62-1.47,37.07-17.93,38.54-38.54.04,0,.08,0,.12,0s.08,0,.12,0c1.47,20.62,17.93,37.07,38.54,38.54,0,.04,0,.08,0,.12s0,.08,0,.12c-20.62,1.47-37.07,17.93-38.54,38.54-.04,0-.08,0-.12,0s-.08,0-.12,0c-1.47-20.62-17.93-37.07-38.54-38.54,0-.04,0-.08,0-.12Zm35.53,38.53c-18.82-1.52-33.87-16.57-35.39-35.39,18.82,1.52,33.87,16.57,35.39,35.39Zm-38.53,41.8c-21.32,0-38.67-17.35-38.67-38.67s17.35-38.67,38.67-38.67c.04,0,.08,0,.12,0,1.47,20.62,17.93,37.07,38.54,38.54,0,.04,0,.08,0,.12s0,.08,0,.12c-20.62,1.47-37.07,17.93-38.54,38.54-.04,0-.08,0-.12,0Zm38.53-35.53c-1.52,18.82-16.57,33.87-35.39,35.39,1.52-18.82,16.57-33.87,35.39-35.39Zm.14,80.2c0,21.32-17.35,38.67-38.67,38.67s-38.67-17.35-38.67-38.67,17.35-38.67,38.67-38.67c.04,0,.08,0,.12,0,1.47,20.62,17.93,37.07,38.54,38.54,0,.04,0,.08,0,.12Zm-35.53-38.53c18.82,1.52,33.87,16.57,35.39,35.39-18.82-1.52-33.87-16.57-35.39-35.39Zm38.53,35.53s-.08,0-.12,0c-1.47-20.62-17.93-37.07-38.54-38.54,0-.04,0-.08,0-.12s0-.08,0-.12c20.62-1.47,37.07-17.93,38.54-38.54.04,0,.08,0,.12,0s.08,0,.12,0c1.47,20.62,17.93,37.07,38.54,38.54,0,.04,0,.08,0,.12s0,.08,0,.12c-20.62,1.47-37.07,17.93-38.54,38.54-.04,0-.08,0-.12,0Zm38.53-35.53c-1.52,18.82-16.57,33.87-35.39,35.39,1.52-18.82,16.57-33.87,35.39-35.39Zm41.8,38.53c0,21.32-17.35,38.67-38.67,38.67s-38.67-17.35-38.67-38.67c0-.04,0-.08,0-.12,20.62-1.47,37.07-17.93,38.54-38.54.04,0,.08,0,.12,0s.08,0,.12,0c1.47,20.62,17.93,37.07,38.54,38.54,0,.04,0,.08,0,.12Zm-35.53-38.53c18.82,1.52,33.87,16.57,35.39,35.39-18.82-1.52-33.87-16.57-35.39-35.39Zm38.53,35.53s-.08,0-.12,0c-1.47-20.62-17.93-37.07-38.54-38.54,0-.04,0-.08,0-.12s0-.08,0-.12c20.62-1.47,37.07-17.93,38.54-38.54.04,0,.08,0,.12,0s.08,0,.12,0c1.47,20.62,17.93,37.07,38.54,38.54,0,.04,0,.08,0,.12s0,.08,0,.12c-20.62,1.47-37.07,17.93-38.54,38.54-.04,0-.08,0-.12,0Zm38.53-35.53c-1.52,18.82-16.57,33.87-35.39,35.39,1.52-18.82,16.57-33.87,35.39-35.39Zm41.8,38.53c0,21.32-17.35,38.67-38.67,38.67s-38.67-17.35-38.67-38.67c0-.04,0-.08,0-.12,20.62-1.47,37.07-17.93,38.54-38.54.04,0,.08,0,.12,0s.08,0,.12,0c1.47,20.62,17.93,37.07,38.54,38.54,0,.04,0,.08,0,.12Zm-35.53-38.53c18.82,1.52,33.87,16.57,35.39,35.39-18.82-1.52-33.87-16.57-35.39-35.39Zm38.53,35.53s-.08,0-.12,0c-1.47-20.62-17.93-37.07-38.54-38.54,0-.04,0-.08,0-.12s0-.08,0-.12c20.62-1.47,37.07-17.93,38.54-38.54.04,0,.08,0,.12,0s.08,0,.12,0c1.47,20.62,17.93,37.07,38.54,38.54,0,.04,0,.08,0,.12s0,.08,0,.12c-20.62,1.47-37.07,17.93-38.54,38.54-.04,0-.08,0-.12,0Zm38.53-35.53c-1.52,18.82-16.57,33.87-35.39,35.39,1.52-18.82,16.57-33.87,35.39-35.39Zm41.8,38.53c0,21.32-17.35,38.67-38.67,38.67s-38.67-17.35-38.67-38.67c0-.04,0-.08,0-.12,20.62-1.47,37.07-17.93,38.54-38.54.04,0,.08,0,.12,0s.08,0,.12,0c1.47,20.62,17.93,37.07,38.54,38.54,0,.04,0,.08,0,.12Zm-35.53-38.53c18.82,1.52,33.87,16.57,35.39,35.39-18.82-1.52-33.87-16.57-35.39-35.39Zm38.53,35.53s-.08,0-.12,0c-1.47-20.62-17.93-37.07-38.54-38.54,0-.04,0-.08,0-.12s0-.08,0-.12c20.62-1.47,37.07-17.93,38.54-38.54.04,0,.08,0,.12,0s.08,0,.12,0c1.47,20.62,17.93,37.07,38.54,38.54,0,.04,0,.08,0,.12s0,.08,0,.12c-20.62,1.47-37.07,17.93-38.54,38.54-.04,0-.08,0-.12,0Zm38.53-35.53c-1.52,18.82-16.57,33.87-35.39,35.39,1.52-18.82,16.57-33.87,35.39-35.39Zm41.8,38.53c0,21.32-17.35,38.67-38.67,38.67s-38.67-17.35-38.67-38.67c0-.04,0-.08,0-.12,20.62-1.47,37.07-17.93,38.54-38.54.04,0,.08,0,.12,0s.08,0,.12,0c1.47,20.62,17.93,37.07,38.54,38.54,0,.04,0,.08,0,.12Zm-35.53-38.53c18.82,1.52,33.87,16.57,35.39,35.39-18.82-1.52-33.87-16.57-35.39-35.39Zm38.53,35.53s-.08,0-.12,0c-1.47-20.62-17.93-37.07-38.54-38.54,0-.04,0-.08,0-.12s0-.08,0-.12c20.62-1.47,37.07-17.93,38.54-38.54.04,0,.08,0,.12,0s.08,0,.12,0c1.47,20.62,17.93,37.07,38.54,38.54,0,.04,0,.08,0,.12s0,.08,0,.12c-20.62,1.47-37.07,17.93-38.54,38.54-.04,0-.08,0-.12,0Zm38.53-35.53c-1.52,18.82-16.57,33.87-35.39,35.39,1.52-18.82,16.57-33.87,35.39-35.39Zm41.8,38.53c0,21.32-17.35,38.67-38.67,38.67s-38.67-17.35-38.67-38.67c0-.04,0-.08,0-.12,20.62-1.47,37.07-17.93,38.54-38.54.04,0,.08,0,.12,0s.08,0,.12,0c1.47,20.62,17.93,37.07,38.54,38.54,0,.04,0,.08,0,.12Zm-35.53-38.53c18.82,1.52,33.87,16.57,35.39,35.39-18.82-1.52-33.87-16.57-35.39-35.39Zm80.2-.14c21.32,0,38.67,17.35,38.67,38.67s-17.35,38.67-38.67,38.67-38.67-17.35-38.67-38.67c0-.04,0-.08,0-.12,20.62-1.47,37.07-17.93,38.54-38.54.04,0,.08,0,.12,0Zm-38.53,35.53c1.52-18.82,16.57-33.87,35.39-35.39-1.52,18.82-16.57,33.87-35.39,35.39Zm35.53-38.53s0,.08,0,.12c-20.62,1.47-37.07,17.93-38.54,38.54-.04,0-.08,0-.12,0s-.08,0-.12,0c-1.47-20.62-17.93-37.07-38.54-38.54,0-.04,0-.08,0-.12s0-.08,0-.12c20.62-1.47,37.07-17.93,38.54-38.54.04,0,.08,0,.12,0s.08,0,.12,0c1.47,20.62,17.93,37.07,38.54,38.54,0,.04,0,.08,0,.12Zm-35.53-38.53c18.82,1.52,33.87,16.57,35.39,35.39-18.82-1.52-33.87-16.57-35.39-35.39Zm38.53-41.8c21.32,0,38.67,17.35,38.67,38.67s-17.35,38.67-38.67,38.67c-.04,0-.08,0-.12,0-1.47-20.62-17.93-37.07-38.54-38.54,0-.04,0-.08,0-.12s0-.08,0-.12c20.62-1.47,37.07-17.93,38.54-38.54.04,0,.08,0,.12,0Zm-38.53,35.53c1.52-18.82,16.57-33.87,35.39-35.39-1.52,18.82-16.57,33.87-35.39,35.39Zm35.53-38.53s0,.08,0,.12c-20.62,1.47-37.07,17.93-38.54,38.54-.04,0-.08,0-.12,0s-.08,0-.12,0c-1.47-20.62-17.93-37.07-38.54-38.54,0-.04,0-.08,0-.12s0-.08,0-.12c20.62-1.47,37.07-17.93,38.54-38.54.04,0,.08,0,.12,0s.08,0,.12,0c1.47,20.62,17.93,37.07,38.54,38.54,0,.04,0,.08,0,.12Zm-35.53-38.53c18.82,1.52,33.87,16.57,35.39,35.39-18.82-1.52-33.87-16.57-35.39-35.39Zm38.53-41.8c21.32,0,38.67,17.35,38.67,38.67s-17.35,38.67-38.67,38.67c-.04,0-.08,0-.12,0-1.47-20.62-17.93-37.07-38.54-38.54,0-.04,0-.08,0-.12s0-.08,0-.12c20.62-1.47,37.07-17.93,38.54-38.54.04,0,.08,0,.12,0Zm-38.53,35.53c1.52-18.82,16.57-33.87,35.39-35.39-1.52,18.82-16.57,33.87-35.39,35.39Zm35.53-38.53s0,.08,0,.12c-20.62,1.47-37.07,17.93-38.54,38.54-.04,0-.08,0-.12,0s-.08,0-.12,0c-1.47-20.62-17.93-37.07-38.54-38.54,0-.04,0-.08,0-.12s0-.08,0-.12c20.62-1.47,37.07-17.93,38.54-38.54.04,0,.08,0,.12,0s.08,0,.12,0c1.47,20.62,17.93,37.07,38.54,38.54,0,.04,0,.08,0,.12Zm-35.53-38.53c18.82,1.52,33.87,16.57,35.39,35.39-18.82-1.52-33.87-16.57-35.39-35.39Zm38.53-41.8c21.32,0,38.67,17.35,38.67,38.67s-17.35,38.67-38.67,38.67c-.04,0-.08,0-.12,0-1.47-20.62-17.93-37.07-38.54-38.54,0-.04,0-.08,0-.12s0-.08,0-.12c20.62-1.47,37.07-17.93,38.54-38.54.04,0,.08,0,.12,0Zm-38.53,35.53c1.52-18.82,16.57-33.87,35.39-35.39-1.52,18.82-16.57,33.87-35.39,35.39Zm35.53-38.53s0,.08,0,.12c-20.62,1.47-37.07,17.93-38.54,38.54-.04,0-.08,0-.12,0s-.08,0-.12,0c-1.47-20.62-17.93-37.07-38.54-38.54,0-.04,0-.08,0-.12s0-.08,0-.12c20.62-1.47,37.07-17.93,38.54-38.54.04,0,.08,0,.12,0s.08,0,.12,0c1.47,20.62,17.93,37.07,38.54,38.54,0,.04,0,.08,0,.12Zm-35.53-38.53c18.82,1.52,33.87,16.57,35.39,35.39-18.82-1.52-33.87-16.57-35.39-35.39Zm38.53-41.8c21.32,0,38.67,17.35,38.67,38.67s-17.35,38.67-38.67,38.67c-.04,0-.08,0-.12,0-1.47-20.62-17.93-37.07-38.54-38.54,0-.04,0-.08,0-.12s0-.08,0-.12c20.62-1.47,37.07-17.93,38.54-38.54.04,0,.08,0,.12,0Zm-38.53,35.53c1.52-18.82,16.57-33.87,35.39-35.39-1.52,18.82-16.57,33.87-35.39,35.39Zm35.53-38.53s0,.08,0,.12c-20.62,1.47-37.07,17.93-38.54,38.54-.04,0-.08,0-.12,0s-.08,0-.12,0c-1.47-20.62-17.93-37.07-38.54-38.54,0-.04,0-.08,0-.12s0-.08,0-.12c20.62-1.47,37.07-17.93,38.54-38.54.04,0,.08,0,.12,0s.08,0,.12,0c1.47,20.62,17.93,37.07,38.54,38.54,0,.04,0,.08,0,.12Zm-35.53-38.53c18.82,1.52,33.87,16.57,35.39,35.39-18.82-1.52-33.87-16.57-35.39-35.39Zm38.53,35.53s-.08,0-.12,0c-1.47-20.62-17.93-37.07-38.54-38.54,0-.04,0-.08,0-.12s0-.08,0-.12c20.62-1.47,37.07-17.93,38.54-38.54.04,0,.08,0,.12,0,21.32,0,38.67,17.35,38.67,38.67s-17.35,38.67-38.67,38.67Z" style="fill:url(#radial-gradient); stroke-width:0px;"/></svg>